<?xml version="1.0" encoding="UTF-8" standalone="no"?>
<svg
   width="1280"
   height="528"
   version="1.1"
   viewBox="0 0 338.67 139.7"
   id="svg172"
   sodipodi:docname="quantization_picture.svg"
   inkscape:version="1.3.2 (091e20e, 2023-11-25, custom)"
   xmlns:inkscape="http://www.inkscape.org/namespaces/inkscape"
   xmlns:sodipodi="http://sodipodi.sourceforge.net/DTD/sodipodi-0.dtd"
   xmlns="http://www.w3.org/2000/svg"
   xmlns:svg="http://www.w3.org/2000/svg">
  <sodipodi:namedview
     id="namedview172"
     pagecolor="#ffffff"
     bordercolor="#000000"
     borderopacity="0.25"
     inkscape:showpageshadow="2"
     inkscape:pageopacity="0.0"
     inkscape:pagecheckerboard="0"
     inkscape:deskcolor="#d1d1d1"
     showgrid="false"
     inkscape:zoom="0.87968751"
     inkscape:cx="600.78152"
     inkscape:cy="465.50621"
     inkscape:window-width="1920"
     inkscape:window-height="1129"
     inkscape:window-x="-8"
     inkscape:window-y="-8"
     inkscape:window-maximized="1"
     inkscape:current-layer="svg172" />
  <defs
     id="defs60">
    <clipPath
       id="f">
      <rect
         width="1280"
         height="528"
         id="rect1" />
    </clipPath>
    <clipPath
       id="bb">
      <rect
         width="1353"
         height="770"
         fill="#fff"
         id="rect2" />
    </clipPath>
    <clipPath
       id="ay">
      <rect
         width="1353"
         height="770"
         fill="#fff"
         id="rect3" />
    </clipPath>
    <clipPath
       id="ax">
      <rect
         width="1353"
         height="770"
         fill="#fff"
         id="rect4" />
    </clipPath>
    <clipPath
       id="bg">
      <rect
         width="1353"
         height="770"
         fill="#fff"
         id="rect5" />
    </clipPath>
    <clipPath
       id="av">
      <rect
         width="1353"
         height="770"
         fill="#fff"
         id="rect6" />
    </clipPath>
    <clipPath
       id="be">
      <rect
         width="1353"
         height="770"
         fill="#fff"
         id="rect7" />
    </clipPath>
    <clipPath
       id="au">
      <rect
         width="1353"
         height="770"
         fill="#fff"
         id="rect8" />
    </clipPath>
    <clipPath
       id="bd">
      <rect
         width="1353"
         height="770"
         fill="#fff"
         id="rect9" />
    </clipPath>
    <clipPath
       id="at">
      <rect
         width="1353"
         height="770"
         fill="#fff"
         id="rect10" />
    </clipPath>
    <clipPath
       id="bc">
      <rect
         width="1353"
         height="770"
         fill="#fff"
         id="rect11" />
    </clipPath>
    <clipPath
       id="aw">
      <rect
         width="1353"
         height="770"
         fill="#fff"
         id="rect12" />
    </clipPath>
    <clipPath
       id="bf">
      <rect
         width="1353"
         height="770"
         fill="#fff"
         id="rect13" />
    </clipPath>
    <clipPath
       id="ba">
      <rect
         width="1353"
         height="770"
         fill="#fff"
         id="rect14" />
    </clipPath>
    <clipPath
       id="az">
      <rect
         width="1353"
         height="770"
         fill="#fff"
         id="rect15" />
    </clipPath>
    <clipPath
       id="h">
      <rect
         width="1280"
         height="528"
         id="rect16" />
    </clipPath>
    <clipPath
       id="i">
      <g
         transform="translate(-216.13 -342)"
         id="g17">
        <rect
           width="1280"
           height="528"
           id="rect17" />
      </g>
    </clipPath>
    <clipPath
       id="k">
      <rect
         width="1280"
         height="528"
         id="rect18" />
    </clipPath>
    <clipPath
       id="l">
      <g
         transform="translate(-922.18,-342)"
         id="g19">
        <rect
           width="1280"
           height="528"
           id="rect19" />
      </g>
    </clipPath>
    <clipPath
       id="m">
      <rect
         width="1280"
         height="528"
         id="rect20" />
    </clipPath>
    <clipPath
       id="n">
      <g
         transform="translate(-215,-387)"
         id="g21">
        <rect
           width="1280"
           height="528"
           id="rect21" />
      </g>
    </clipPath>
    <clipPath
       id="o">
      <rect
         width="1280"
         height="528"
         id="rect22" />
    </clipPath>
    <clipPath
       id="p">
      <g
         transform="translate(-252.17 -387)"
         id="g23">
        <rect
           width="1280"
           height="528"
           id="rect23" />
      </g>
    </clipPath>
    <clipPath
       id="q">
      <rect
         width="1280"
         height="528"
         id="rect24" />
    </clipPath>
    <clipPath
       id="r">
      <g
         transform="translate(-213.17 -424)"
         id="g25">
        <rect
           width="1280"
           height="528"
           id="rect25" />
      </g>
    </clipPath>
    <clipPath
       id="s">
      <rect
         width="1280"
         height="528"
         id="rect26" />
    </clipPath>
    <clipPath
       id="t">
      <g
         transform="translate(-254,-424)"
         id="g27">
        <rect
           width="1280"
           height="528"
           id="rect27" />
      </g>
    </clipPath>
    <clipPath
       id="u">
      <rect
         width="1280"
         height="528"
         id="rect28" />
    </clipPath>
    <clipPath
       id="v">
      <g
         transform="translate(-330.08 -387)"
         id="g29">
        <rect
           width="1280"
           height="528"
           id="rect29" />
      </g>
    </clipPath>
    <clipPath
       id="w">
      <rect
         width="1280"
         height="528"
         id="rect30" />
    </clipPath>
    <clipPath
       id="x">
      <g
         transform="translate(-368.83 -387)"
         id="g31">
        <rect
           width="1280"
           height="528"
           id="rect31" />
      </g>
    </clipPath>
    <clipPath
       id="y">
      <rect
         width="1280"
         height="528"
         id="rect32" />
    </clipPath>
    <clipPath
       id="z">
      <g
         transform="translate(-330.17 -424)"
         id="g33">
        <rect
           width="1280"
           height="528"
           id="rect33" />
      </g>
    </clipPath>
    <clipPath
       id="aa">
      <rect
         width="1280"
         height="528"
         id="rect34" />
    </clipPath>
    <clipPath
       id="ab">
      <g
         transform="translate(-369,-424)"
         id="g35">
        <rect
           width="1280"
           height="528"
           id="rect35" />
      </g>
    </clipPath>
    <clipPath
       id="ac">
      <rect
         width="1280"
         height="528"
         id="rect36" />
    </clipPath>
    <clipPath
       id="ad">
      <rect
         width="1280"
         height="528"
         id="rect37" />
    </clipPath>
    <clipPath
       id="e">
      <rect
         width="1353"
         height="770"
         fill="#fff"
         id="rect38" />
    </clipPath>
    <clipPath
       id="c">
      <rect
         width="1353"
         height="770"
         fill="#fff"
         id="rect39" />
    </clipPath>
    <clipPath
       id="ae">
      <rect
         width="1280"
         height="528"
         id="rect40" />
    </clipPath>
    <clipPath
       id="af">
      <g
         transform="translate(-927.44 -387)"
         id="g41">
        <rect
           width="1280"
           height="528"
           id="rect41" />
      </g>
    </clipPath>
    <clipPath
       id="ag">
      <rect
         width="1280"
         height="528"
         id="rect42" />
    </clipPath>
    <clipPath
       id="ah">
      <g
         transform="translate(-964.61 -387)"
         id="g43">
        <rect
           width="1280"
           height="528"
           id="rect43" />
      </g>
    </clipPath>
    <clipPath
       id="ai">
      <rect
         width="1280"
         height="528"
         id="rect44" />
    </clipPath>
    <clipPath
       id="aj">
      <g
         transform="translate(-925.61 -424)"
         id="g45">
        <rect
           width="1280"
           height="528"
           id="rect45" />
      </g>
    </clipPath>
    <clipPath
       id="ak">
      <rect
         width="1280"
         height="528"
         id="rect46" />
    </clipPath>
    <clipPath
       id="al">
      <g
         transform="translate(-966.44 -424)"
         id="g47">
        <rect
           width="1280"
           height="528"
           id="rect47" />
      </g>
    </clipPath>
    <clipPath
       id="am">
      <rect
         width="1280"
         height="528"
         id="rect48" />
    </clipPath>
    <clipPath
       id="an">
      <g
         transform="translate(-1042.5 -387)"
         id="g49">
        <rect
           width="1280"
           height="528"
           id="rect49" />
      </g>
    </clipPath>
    <clipPath
       id="ao">
      <rect
         width="1280"
         height="528"
         id="rect50" />
    </clipPath>
    <clipPath
       id="ap">
      <g
         transform="translate(-1081.3 -387)"
         id="g51">
        <rect
           width="1280"
           height="528"
           id="rect51" />
      </g>
    </clipPath>
    <clipPath
       id="aq">
      <rect
         width="1280"
         height="528"
         id="rect52" />
    </clipPath>
    <clipPath
       id="ar">
      <g
         transform="translate(-1042.6 -424)"
         id="g53">
        <rect
           width="1280"
           height="528"
           id="rect53" />
      </g>
    </clipPath>
    <clipPath
       id="as">
      <rect
         width="1280"
         height="528"
         id="rect54" />
    </clipPath>
    <clipPath
       id="bh">
      <g
         transform="translate(-1081.5 -424)"
         id="g55">
        <rect
           width="1280"
           height="528"
           id="rect55" />
      </g>
    </clipPath>
    <clipPath
       id="a">
      <rect
         width="1280"
         height="528"
         id="rect56" />
    </clipPath>
    <clipPath
       id="g">
      <rect
         width="1280"
         height="528"
         id="rect57" />
    </clipPath>
    <clipPath
       id="j">
      <g
         transform="translate(-1144.9 -213)"
         id="g58">
        <rect
           width="1280"
           height="528"
           id="rect58" />
      </g>
    </clipPath>
    <clipPath
       id="d">
      <rect
         width="1353"
         height="770"
         fill="#fff"
         id="rect59" />
    </clipPath>
    <clipPath
       id="b">
      <rect
         width="1353"
         height="770"
         fill="#fff"
         id="rect60" />
    </clipPath>
    <clipPath
       id="av-7">
      <rect
         width="1353"
         height="770"
         fill="#ffffff"
         id="rect6-6"
         x="0"
         y="0" />
    </clipPath>
    <clipPath
       id="be-3">
      <rect
         width="1353"
         height="770"
         fill="#ffffff"
         id="rect7-7"
         x="0"
         y="0" />
    </clipPath>
    <clipPath
       id="d-0">
      <rect
         width="1353"
         height="770"
         fill="#ffffff"
         id="rect59-0"
         x="0"
         y="0" />
    </clipPath>
    <clipPath
       id="d-0-5">
      <rect
         width="1353"
         height="770"
         fill="#ffffff"
         id="rect59-0-8"
         x="0"
         y="0" />
    </clipPath>
    <clipPath
       id="d-0-5-1">
      <rect
         width="1353"
         height="770"
         fill="#ffffff"
         id="rect59-0-8-6"
         x="0"
         y="0" />
    </clipPath>
    <clipPath
       id="d-0-5-1-2">
      <rect
         width="1353"
         height="770"
         fill="#ffffff"
         id="rect59-0-8-6-8"
         x="0"
         y="0" />
    </clipPath>
    <clipPath
       id="g-7">
      <rect
         width="1280"
         height="528"
         id="rect57-6"
         x="0"
         y="0" />
    </clipPath>
  </defs>
  <rect
     style="fill:#ffffff;fill-opacity:1;fill-rule:evenodd;stroke:none;stroke-width:0.793739;stroke-miterlimit:8;-inkscape-stroke:none"
     id="rect62"
     width="338.67001"
     height="139.70137"
     x="-8.8817842e-16"
     y="-0.0006875" />
  <path
     transform="matrix(0 .47018 .47018 0 -96.557 -190.91)"
     d="m515.57 477.7h105.56"
     clip-path="url(#bb)"
     stroke="#b1b1b2"
     stroke-linejoin="bevel"
     stroke-width=".90037"
     id="path61" />
  <path
     transform="matrix(0 .48707 .48707 0 -200.4 -201.38)"
     d="m515.57 477.7h105.56"
     clip-path="url(#ay)"
     stroke="#b1b1b2"
     stroke-linejoin="bevel"
     stroke-width=".86913"
     id="path62" />
  <g
     transform="matrix(.26458 0 0 .26458 4.2667e-6 0)"
     stroke="#b1b1b2"
     id="g64">
    <path
       transform="rotate(180 521.25 429.81)"
       d="m619.98 482.46v-8.72l9.148 4.276z"
       clip-path="url(#ax)"
       clip-rule="evenodd"
       fill="#b1b1b2"
       fill-rule="evenodd"
       id="path63" />
    <path
       transform="matrix(.64694 0 0 .64694 82.927 72.458)"
       d="m515.57 477.7h105.56"
       clip-path="url(#bg)"
       stroke-linejoin="bevel"
       stroke-width="2.4732"
       id="path64" />
  </g>
  <g
     transform="matrix(-.26458 0 0 -.26458 341.8 201.88)"
     stroke="#b1b1b2"
     id="g66">
    <path
       transform="rotate(180 521.25 429.81)"
       d="m619.98 482.46v-8.72l9.148 4.276z"
       clip-path="url(#av)"
       clip-rule="evenodd"
       fill="#b1b1b2"
       fill-rule="evenodd"
       id="path65" />
    <path
       transform="matrix(.62703 0 0 .62703 93.192 81.969)"
       d="m515.57 477.7h105.56"
       clip-path="url(#be)"
       stroke-linejoin="bevel"
       stroke-width="2.5517"
       id="path66" />
  </g>
  <g
     transform="matrix(.26458 0 0 .26458 181.77 0)"
     stroke="#b1b1b2"
     id="g68">
    <path
       transform="rotate(180 521.25 429.81)"
       d="m619.98 482.46v-8.72l9.148 4.276z"
       clip-path="url(#au)"
       clip-rule="evenodd"
       fill="#b1b1b2"
       fill-rule="evenodd"
       id="path67" />
    <path
       transform="matrix(.62703 0 0 .62703 93.192 81.969)"
       d="m515.57 477.7h105.56"
       clip-path="url(#bd)"
       stroke-linejoin="bevel"
       stroke-width="2.5517"
       id="path68" />
  </g>
  <g
     id="g177">
    <path
       transform="matrix(0,0.26458,-0.26458,0,435.79826,-116.14574)"
       d="m 619.98,482.46 v -8.72 l 9.148,4.276 z"
       clip-path="url(#at)"
       clip-rule="evenodd"
       fill="#b1b1b2"
       fill-rule="evenodd"
       id="path69"
       style="stroke:#b1b1b2" />
    <path
       transform="matrix(0,-0.17647711,0.17647711,0,224.99449,139.34327)"
       d="M 515.57,477.7 H 621.13"
       clip-path="url(#bc)"
       stroke-linejoin="bevel"
       stroke-width="2.39876"
       id="path70"
       style="stroke:#b1b1b2" />
  </g>
  <g
     transform="matrix(.25199 0 0 .26458 4.4053 1.76e-6)"
     stroke="#b1b1b2"
     id="g72">
    <path
       transform="translate(-447.84 -96.612)"
       d="m619.98 482.46v-8.72l9.148 4.276z"
       clip-path="url(#aw)"
       clip-rule="evenodd"
       fill="#b1b1b2"
       fill-rule="evenodd"
       stroke-width="1.0247"
       id="path71" />
    <path
       transform="matrix(-.64694 0 0 -.64694 511.72 690.54)"
       d="m515.57 477.7h105.56"
       clip-path="url(#bf)"
       stroke-linejoin="bevel"
       stroke-width="2.5342"
       id="path72" />
  </g>
  <path
     transform="matrix(0 .47687 .47687 0 -13.491 -195.06)"
     d="m515.57 477.7h105.56"
     clip-path="url(#ba)"
     stroke="#b1b1b2"
     stroke-linejoin="bevel"
     stroke-width=".88772"
     id="path73" />
  <path
     transform="matrix(0,0.40539501,0.40539501,0,115.64425,-150.65001)"
     d="M 515.57,477.7 H 621.13"
     clip-path="url(#az)"
     stroke="#b1b1b2"
     stroke-linejoin="bevel"
     stroke-width="1.0442"
     id="path74" />
  <path
     transform="matrix(0.26458,0,0,0.26458,4.2667e-6,0)"
     d="m 192.5,326.17 c 0,-15.28 12.387,-27.667 27.667,-27.667 h 162.67 c 15.28,0 27.667,12.387 27.667,27.667 v 110.67 c 0,15.28 -12.387,27.667 -27.667,27.667 h -162.67 c -15.28,0 -27.667,-12.387 -27.667,-27.667 z"
     clip-path="url(#h)"
     fill="#ffffff"
     fill-rule="evenodd"
     stop-color="#000000"
     stroke="#0054ae"
     stroke-width="2.1"
     style="font-variation-settings:normal;-inkscape-stroke:none"
     id="path75" />
  <path
     transform="matrix(0.26458,0,0,0.26458,-4.7625,0)"
     d="m 898.5,326.17 c 0,-15.28 12.387,-27.667 27.667,-27.667 h 162.66 c 15.28,0 27.67,12.387 27.67,27.667 v 110.67 c 0,15.28 -12.39,27.667 -27.67,27.667 h -162.66 c -15.28,0 -27.667,-12.387 -27.667,-27.667 z"
     clip-path="url(#k)"
     fill="#ffffff"
     fill-rule="evenodd"
     stop-color="#000000"
     stroke="#0054ae"
     stroke-width="2.1"
     style="font-variation-settings:normal"
     id="path87" />
  <path
     transform="matrix(0.26458,0,0,0.26458,4.2667e-6,0)"
     d="m 203.5,363.5 h 39 v 38 h -39 z"
     clip-path="url(#m)"
     fill="#b9d6e5"
     stop-color="#000000"
     stroke="#0068b5"
     stroke-miterlimit="8"
     stroke-width="1.3333"
     style="font-variation-settings:normal;-inkscape-stroke:none"
     id="path99" />
  <path
     transform="matrix(0.26458,0,0,0.26458,4.2667e-6,0)"
     d="m 242.5,363.5 h 39 v 37 h -39 z"
     clip-path="url(#o)"
     fill="#b9d6e5"
     stop-color="#000000"
     stroke="#0068b5"
     stroke-miterlimit="8"
     stroke-width="1.3333"
     style="font-variation-settings:normal;-inkscape-stroke:none"
     id="path103" />
  <path
     transform="matrix(0.26458,0,0,0.26458,4.2667e-6,0)"
     d="m 203.5,400.5 h 39 v 38 h -39 z"
     clip-path="url(#q)"
     fill="#76d8ff"
     stop-color="#000000"
     stroke="#0068b5"
     stroke-miterlimit="8"
     stroke-width="1.3333"
     style="font-variation-settings:normal;-inkscape-stroke:none"
     id="path107" />
  <path
     transform="matrix(0.26458,0,0,0.26458,4.2667e-6,0)"
     d="m 242.5,400.5 h 39 v 38 h -39 z"
     clip-path="url(#s)"
     fill="#76d8ff"
     stop-color="#000000"
     stroke="#0068b5"
     stroke-miterlimit="8"
     stroke-width="1.3333"
     style="font-variation-settings:normal;-inkscape-stroke:none"
     id="path111" />
  <path
     transform="matrix(0.26458,0,0,0.26458,4.2667e-6,0)"
     d="m 320.5,363.5 h 39 v 38 h -39 z"
     clip-path="url(#u)"
     fill="#b9d6e5"
     stop-color="#000000"
     stroke="#0068b5"
     stroke-miterlimit="8"
     stroke-width="1.3333"
     style="font-variation-settings:normal;-inkscape-stroke:none"
     id="path115" />
  <path
     transform="matrix(0.26458,0,0,0.26458,4.2667e-6,0)"
     d="m 359.5,363.5 h 39 v 37 h -39 z"
     clip-path="url(#w)"
     fill="#b9d6e5"
     stop-color="#000000"
     stroke="#0068b5"
     stroke-miterlimit="8"
     stroke-width="1.3333"
     style="font-variation-settings:normal;-inkscape-stroke:none"
     id="path119" />
  <path
     transform="matrix(0.26458,0,0,0.26458,4.2667e-6,0)"
     d="m 320.5,400.5 h 39 v 38 h -39 z"
     clip-path="url(#y)"
     fill="#76d8ff"
     stop-color="#000000"
     stroke="#0068b5"
     stroke-miterlimit="8"
     stroke-width="1.3333"
     style="font-variation-settings:normal;-inkscape-stroke:none"
     id="path123" />
  <path
     transform="matrix(0.26458,0,0,0.26458,4.2667e-6,0)"
     d="m 359.5,400.5 h 39 v 38 h -39 z"
     clip-path="url(#aa)"
     fill="#76d8ff"
     stroke="#0068b5"
     stroke-miterlimit="8"
     stroke-width="1.3333"
     id="path127" />
  <path
     transform="matrix(0.26458,0,0,0.26458,4.2667e-6,0)"
     d="m 292.85,394.56 4.344,-3.223 3.804,5.127 3.804,-5.127 4.344,3.223 -4.78,6.443 4.78,6.443 -4.344,3.223 -3.804,-5.127 -3.804,5.127 -4.344,-3.223 4.78,-6.443 z"
     clip-path="url(#ac)"
     fill="#00285a"
     fill-rule="evenodd"
     stop-color="#000000"
     stroke="#000000"
     stroke-width="1.3333"
     style="font-variation-settings:normal;stroke-miterlimit:8;-inkscape-stroke:none"
     id="path131" />
  <path
     transform="matrix(0.43109,0,0,0.43347,-165.26,-79.378)"
     d="m 439.24,301.04 h 38.002 c 13.533,0 24.43,-9.966 24.43,-22.346 0,-12.38 -10.897,-22.346 -24.43,-22.346 H 439.24 c -13.534,0 -24.43,9.966 -24.43,22.346 0,12.38 10.896,22.346 24.43,22.346 z"
     clip-path="url(#e)"
     fill="#76ceff"
     stop-color="#000000"
     stroke="#76ceff"
     stroke-width="0.81609"
     style="font-variation-settings:normal;stroke-miterlimit:8;-inkscape-stroke:none"
     id="path133" />
  <path
     transform="matrix(0.43109,0,0,0.43347,-75.537,-79.025)"
     d="m 439.24,256.35 c -13.534,0 -24.43,9.966 -24.43,22.346 0,12.38 10.896,22.346 24.43,22.346 h 62.406 c 13.533,0 24.43,-9.966 24.43,-22.346 0,-12.38 -10.897,-22.346 -24.43,-22.346 h -38.002 z"
     clip-path="url(#c)"
     fill="#0068b5"
     stop-color="#000000"
     style="font-variation-settings:normal;-inkscape-stroke:none"
     id="path134" />
  <path
     transform="matrix(.26458 0 0 .26458 -4.7625 0)"
     d="m910.5 363.5h39v38h-39z"
     clip-path="url(#ae)"
     fill="#b9d6e5"
     stroke="#0068b5"
     stroke-miterlimit="8"
     stroke-width="1.3333"
     id="path135" />
  <path
     transform="matrix(.26458 0 0 .26458 -4.7625 0)"
     d="m949.5 363.5h39v37h-39z"
     clip-path="url(#ag)"
     fill="#b9d6e5"
     stroke="#0068b5"
     stroke-miterlimit="8"
     stroke-width="1.3333"
     id="path137" />
  <path
     transform="matrix(.26458 0 0 .26458 -4.7625 0)"
     d="m910.5 400.5h39v38h-39z"
     clip-path="url(#ai)"
     fill="#76d8ff"
     stop-color="#000000"
     stroke="#0068b5"
     stroke-miterlimit="8"
     stroke-width="1.3333"
     style="-inkscape-stroke:none;font-variation-settings:normal"
     id="path139" />
  <path
     transform="matrix(.26458 0 0 .26458 -4.7625 0)"
     d="m949.5 400.5h39v38h-39z"
     clip-path="url(#ak)"
     fill="#76d8ff"
     stop-color="#000000"
     stroke="#0068b5"
     stroke-miterlimit="8"
     stroke-width="1.3333"
     style="-inkscape-stroke:none;font-variation-settings:normal"
     id="path141" />
  <path
     style="font-size:4.23338px;font-family:'IntelOne Display';-inkscape-font-specification:'IntelOne Display';text-align:center;baseline-shift:baseline;text-anchor:middle;fill:#00285a;fill-opacity:1;fill-rule:evenodd;stroke-width:0.264586"
     d="m 251.66632,109.83136 h -0.45721 v -0.32173 h 0.81281 v 2.96336 h -0.3556 z"
     id="text172-3"
     aria-label="1" />
  <path
     transform="matrix(.26458 0 0 .26458 -4.7625 0)"
     d="m1027.5 363.5h39v38h-39z"
     clip-path="url(#am)"
     fill="#b9d6e5"
     stroke="#0068b5"
     stroke-miterlimit="8"
     stroke-width="1.3333"
     id="path143" />
  <path
     transform="matrix(.26458 0 0 .26458 -4.7625 0)"
     d="m1066.5 363.5h39v37h-39z"
     clip-path="url(#ao)"
     fill="#b9d6e5"
     stroke="#0068b5"
     stroke-miterlimit="8"
     stroke-width="1.3333"
     id="path145" />
  <path
     transform="matrix(.26458 0 0 .26458 -4.7625 0)"
     d="m1027.5 400.5h39v38h-39z"
     clip-path="url(#aq)"
     fill="#76d8ff"
     stop-color="#000000"
     stroke="#0068b5"
     stroke-miterlimit="8"
     stroke-width="1.3333"
     style="-inkscape-stroke:none;font-variation-settings:normal"
     id="path147" />
  <path
     transform="matrix(.26458 0 0 .26458 -4.7625 0)"
     d="m1066.5 400.5h39v38h-39z"
     clip-path="url(#as)"
     fill="#76d8ff"
     stop-color="#000000"
     stroke="#0068b5"
     stroke-miterlimit="8"
     stroke-width="1.3333"
     style="-inkscape-stroke:none;font-variation-settings:normal"
     id="path149" />
  <path
     transform="matrix(0.26458,0,0,0.26458,-4.7625,0)"
     d="m 999.85,394.56 4.348,-3.223 3.8,5.127 3.8,-5.127 4.35,3.223 -4.78,6.443 4.78,6.443 -4.35,3.223 -3.8,-5.127 -3.8,5.127 -4.348,-3.223 4.778,-6.443 z"
     clip-path="url(#a)"
     fill="#00285a"
     fill-rule="evenodd"
     stop-color="#000000"
     stroke="#000000"
     stroke-miterlimit="8"
     stroke-width="1.3333"
     style="font-variation-settings:normal;-inkscape-stroke:none"
     id="path151" />
  <g
     transform="matrix(0.26458,0,0,0.26458,298.15,56.356)"
     clip-path="url(#j)"
     fill="#ececec"
     stop-color="#000000"
     style="font-variation-settings:normal;-inkscape-stroke:none"
     aria-label="Quantize"
     id="g160" />
  <g
     id="g165"
     style="fill:#00285a;fill-rule:evenodd">
    <path
       d="m 196.18,73.448 v -4.9389 h 0.60678 v 4.9389 z m 2.166,-4.057 v 4.057 h -0.59266 v -4.9389 h 0.64911 l 3.0833,4.0358 v -4.0358 h 0.59267 v 4.9389 h -0.635 z m 6.2512,-0.33161 h -1.9191 v -0.55033 h 4.438 v 0.55033 h -1.9121 v 4.3886 h -0.60678 z m 6.6464,3.0621 q 0,0.635 -0.52917,1.0372 -0.52211,0.39511 -1.3476,0.39511 -0.81845,0 -1.3406,-0.39511 -0.51506,-0.39511 -0.51506,-1.0231 0,-0.42333 0.24695,-0.74789 0.254,-0.32456 0.70556,-0.50095 -0.39512,-0.16228 -0.61384,-0.45861 -0.21166,-0.30339 -0.21166,-0.67733 0,-0.60678 0.48683,-0.98072 0.48683,-0.37394 1.263,-0.37394 0.76905,0 1.2488,0.37394 0.47978,0.36689 0.47978,0.96661 0,0.37395 -0.21872,0.67733 -0.21167,0.29634 -0.60678,0.46567 0.45155,0.16933 0.6985,0.49389 0.254,0.32455 0.254,0.74789 z m -3.0057,-2.3495 q 0,0.38805 0.3175,0.62794 0.3175,0.23989 0.8255,0.23989 0.508,0 0.81845,-0.23989 0.3175,-0.23989 0.3175,-0.64206 0,-0.37394 -0.32456,-0.60678 -0.3175,-0.23284 -0.81845,-0.23284 -0.50094,0 -0.81844,0.23989 -0.3175,0.23283 -0.3175,0.61384 z m -0.127,2.3424 q 0,0.40217 0.35278,0.66322 0.35983,0.254 0.91722,0.254 0.55739,0 0.91017,-0.254 0.35278,-0.26106 0.35278,-0.67733 0,-0.42334 -0.35278,-0.67734 -0.35278,-0.26105 -0.91723,-0.26105 -0.56444,0 -0.91722,0.26105 -0.34572,0.26106 -0.34572,0.69145 z"
       stop-color="#000000"
       style="font-variation-settings:normal;-inkscape-stroke:none"
       aria-label="INT8"
       id="path161" />
    <path
       d="m 312.47,73.184 v -4.9389 h 0.60679 v 4.9389 z m 2.1661,-4.0569 v 4.0569 h -0.59266 v -4.9389 h 0.6491 l 3.0833,4.0358 v -4.0358 h 0.59267 v 4.9389 h -0.635 z m 6.2512,-0.33161 h -1.9191 v -0.55033 h 4.4379 v 0.55033 h -1.9121 v 4.3886 h -0.60677 z m 6.6464,3.0621 q 0,0.635 -0.52916,1.0372 -0.52213,0.39511 -1.3476,0.39511 -0.81844,0 -1.3406,-0.39511 -0.51503,-0.39511 -0.51503,-1.0231 0,-0.42334 0.24693,-0.74789 0.254,-0.32456 0.70557,-0.50095 -0.39513,-0.16228 -0.61384,-0.45861 -0.21166,-0.30339 -0.21166,-0.67733 0,-0.60678 0.48683,-0.98072 0.48683,-0.37394 1.2629,-0.37395 0.76907,0 1.2488,0.37395 0.47979,0.36689 0.47979,0.96661 0,0.37394 -0.21873,0.67733 -0.21166,0.29633 -0.60679,0.46567 0.45156,0.16933 0.69852,0.49389 0.254,0.32456 0.254,0.74789 z m -3.0057,-2.3495 q 0,0.38806 0.3175,0.62795 0.3175,0.23989 0.8255,0.23989 0.508,0 0.81846,-0.23989 0.3175,-0.23989 0.3175,-0.64206 0,-0.37395 -0.32456,-0.60678 -0.3175,-0.23283 -0.81844,-0.23283 -0.50096,0 -0.81846,0.23989 -0.3175,0.23283 -0.3175,0.61383 z m -0.127,2.3424 q 0,0.40217 0.3528,0.66322 0.35983,0.254 0.9172,0.254 0.5574,0 0.91017,-0.254 0.35279,-0.26106 0.35279,-0.67734 0,-0.42333 -0.35279,-0.67733 -0.35277,-0.26106 -0.91721,-0.26106 -0.56446,0 -0.91723,0.26106 -0.34573,0.26106 -0.34573,0.69145 z"
       stop-color="#000000"
       style="font-variation-settings:normal;-inkscape-stroke:none"
       aria-label="INT8"
       id="path162" />
    <path
       d="m 312.47,41.427 v -4.9389 h 3.5419 v 0.53622 h -2.9351 v 1.6792 h 2.7376 v 0.53622 h -2.7376 v 2.1872 z m 4.2333,0 v -4.9389 h 2.1449 q 0.81137,0 1.277,0.40922 0.47273,0.40217 0.47273,1.0936 0,0.6985 -0.508,1.1218 -0.508,0.41628 -1.3547,0.41628 h -1.4252 v 1.8979 z m 3.2738,-3.4219 q 0,-0.45155 -0.30337,-0.70556 -0.3034,-0.26105 -0.84667,-0.26105 h -1.517 v 1.9473 h 1.4676 q 0.55033,0 0.8749,-0.26106 0.32454,-0.26811 0.32454,-0.71967 z m 2.8152,2.9986 q 0.50097,0 0.83257,-0.27517 0.33866,-0.28222 0.33866,-0.6985 0,-0.43745 -0.34573,-0.69145 -0.33866,-0.254 -0.94543,-0.254 h -0.31044 v -0.50095 h 0.29634 q 0.55737,0 0.88193,-0.23989 0.32457,-0.24695 0.32457,-0.62795 0,-0.35278 -0.29634,-0.57856 -0.29633,-0.22578 -0.77613,-0.22578 -0.508,0 -0.81137,0.27517 -0.29633,0.26811 -0.33163,0.74083 h -0.57853 q 0.0212,-0.66322 0.50093,-1.1077 0.48683,-0.4445 1.2488,-0.4445 0.72674,0 1.1853,0.37394 0.46566,0.36689 0.46566,0.91722 0,0.40922 -0.23989,0.71261 -0.23284,0.30339 -0.67734,0.45861 0.508,0.14111 0.762,0.4445 0.254,0.30339 0.254,0.77611 0,0.62795 -0.508,1.0583 -0.508,0.42333 -1.2841,0.42333 -0.8255,0 -1.3123,-0.4445 -0.47977,-0.45156 -0.48684,-1.2347 h 0.5715 q 0.0282,0.55033 0.34574,0.84667 0.32453,0.29633 0.89603,0.29633 z m 5.8209,0.42333 h -3.5207 v -0.49389 l 1.7074,-1.5663 q 0.60679,-0.55034 0.8255,-0.87489 0.21873,-0.32456 0.21873,-0.69145 0,-0.38806 -0.28927,-0.635 -0.28223,-0.254 -0.70556,-0.254 -0.52211,0 -0.8255,0.32455 -0.29634,0.3175 -0.3175,0.89606 h -0.57857 q 0.014,-0.80433 0.4798,-1.2771 0.4727,-0.47978 1.2559,-0.47978 0.69146,0 1.136,0.40217 0.45154,0.39511 0.45154,1.0089 0,0.49389 -0.27517,0.91722 -0.2681,0.41628 -1.023,1.0795 l -1.2488,1.1148 h 2.7093 z"
       stop-color="#000000"
       style="font-variation-settings:normal;-inkscape-stroke:none"
       aria-label="FP32"
       id="path163" />
    <path
       d="m 130.38,73.441 v -4.9389 h 3.5419 v 0.53622 h -2.9351 v 1.6792 h 2.7376 v 0.53622 h -2.7376 v 2.1872 z m 4.2333,0 v -4.9389 h 2.1449 q 0.81139,0 1.277,0.40922 0.47272,0.40217 0.47272,1.0936 0,0.6985 -0.508,1.1218 -0.508,0.41628 -1.3547,0.41628 h -1.4252 v 1.8979 z m 3.2738,-3.4219 q 0,-0.45155 -0.30339,-0.70556 -0.30339,-0.26105 -0.84667,-0.26105 h -1.517 v 1.9473 h 1.4676 q 0.55033,0 0.87489,-0.26106 0.32456,-0.26811 0.32456,-0.71967 z m 2.8152,2.9986 q 0.50094,0 0.83256,-0.27517 0.33866,-0.28222 0.33866,-0.6985 0,-0.43745 -0.34572,-0.69145 -0.33867,-0.254 -0.94545,-0.254 h -0.31044 v -0.50095 h 0.29633 q 0.55739,0 0.88195,-0.23989 0.32456,-0.24695 0.32456,-0.62795 0,-0.35278 -0.29634,-0.57856 -0.29633,-0.22578 -0.77611,-0.22578 -0.508,0 -0.81139,0.27517 -0.29633,0.26811 -0.33161,0.74083 h -0.57856 q 0.0212,-0.66322 0.50095,-1.1077 0.48683,-0.4445 1.2488,-0.4445 0.72672,0 1.1853,0.37394 0.46566,0.36689 0.46566,0.91722 0,0.40922 -0.23989,0.71261 -0.23283,0.30339 -0.67733,0.45861 0.508,0.14111 0.762,0.4445 0.254,0.30339 0.254,0.77611 0,0.62795 -0.508,1.0583 -0.508,0.42333 -1.2841,0.42333 -0.8255,0 -1.3123,-0.4445 -0.47978,-0.45156 -0.48683,-1.2347 h 0.5715 q 0.0282,0.55033 0.34572,0.84667 0.32456,0.29633 0.89606,0.29633 z m 5.8208,0.42333 h -3.5207 v -0.49389 l 1.7074,-1.5663 q 0.60678,-0.55034 0.8255,-0.87489 0.21873,-0.32456 0.21873,-0.69145 0,-0.38806 -0.28928,-0.635 -0.28222,-0.254 -0.70556,-0.254 -0.52211,0 -0.8255,0.32455 -0.29633,0.3175 -0.3175,0.89606 h -0.57856 q 0.0141,-0.80433 0.47978,-1.2771 0.47272,-0.47978 1.2559,-0.47978 0.69145,0 1.136,0.40217 0.45155,0.39511 0.45155,1.0089 0,0.49389 -0.27516,0.91722 -0.26811,0.41628 -1.0231,1.0795 l -1.2488,1.1148 h 2.7093 z"
       stop-color="#000000"
       style="font-variation-settings:normal;-inkscape-stroke:none"
       aria-label="FP32"
       id="path164" />
    <path
       d="m 13.026,73.441 v -4.9389 h 3.5419 v 0.53622 h -2.9351 v 1.6792 h 2.7376 v 0.53622 h -2.7376 v 2.1872 z m 4.2333,0 v -4.9389 h 2.1449 q 0.81139,0 1.2771,0.40922 0.47272,0.40217 0.47272,1.0936 0,0.6985 -0.508,1.1218 -0.508,0.41628 -1.3547,0.41628 h -1.4252 v 1.8979 z m 3.2738,-3.4219 q 0,-0.45155 -0.30339,-0.70556 -0.30339,-0.26105 -0.84667,-0.26105 h -1.5169 v 1.9473 h 1.4676 q 0.55033,0 0.87489,-0.26106 0.32456,-0.26811 0.32456,-0.71967 z m 2.8152,2.9986 q 0.50095,0 0.83256,-0.27517 0.33867,-0.28222 0.33867,-0.6985 0,-0.43745 -0.34572,-0.69145 -0.33867,-0.254 -0.94544,-0.254 h -0.31044 v -0.50095 h 0.29633 q 0.55739,0 0.88194,-0.23989 0.32456,-0.24695 0.32456,-0.62795 0,-0.35278 -0.29633,-0.57856 -0.29633,-0.22578 -0.77611,-0.22578 -0.508,0 -0.81139,0.27517 -0.29633,0.26811 -0.33161,0.74083 h -0.57856 q 0.02117,-0.66322 0.50094,-1.1077 0.48683,-0.4445 1.2488,-0.4445 0.72672,0 1.1853,0.37394 0.46567,0.36689 0.46567,0.91722 0,0.40922 -0.23989,0.71261 -0.23283,0.30339 -0.67734,0.45861 0.508,0.14111 0.762,0.4445 0.254,0.30339 0.254,0.77611 0,0.62795 -0.508,1.0583 -0.508,0.42333 -1.2841,0.42333 -0.8255,0 -1.3123,-0.4445 -0.47978,-0.45156 -0.48683,-1.2347 h 0.5715 q 0.02822,0.55033 0.34572,0.84667 0.32456,0.29633 0.89606,0.29633 z m 5.8208,0.42333 h -3.5207 v -0.49389 l 1.7074,-1.5663 q 0.60678,-0.55034 0.8255,-0.87489 0.21872,-0.32456 0.21872,-0.69145 0,-0.38806 -0.28928,-0.635 -0.28222,-0.254 -0.70556,-0.254 -0.52211,0 -0.8255,0.32455 -0.29633,0.3175 -0.3175,0.89606 h -0.57856 q 0.01411,-0.80433 0.47978,-1.2771 0.47272,-0.47978 1.2559,-0.47978 0.69144,0 1.1359,0.40217 0.45156,0.39511 0.45156,1.0089 0,0.49389 -0.27517,0.91722 -0.26811,0.41628 -1.0231,1.0795 l -1.2488,1.1148 h 2.7093 z"
       stop-color="#000000"
       style="font-variation-settings:normal;-inkscape-stroke:none"
       aria-label="FP32"
       id="path165" />
  </g>
  <path
     d="m 25.096,38.486 -1.3264,5.8032 h -0.74612 l -1.6498,-4.7835 -1.6332,4.7835 h -0.74612 l -1.3182,-5.8032 h 0.72954 l 1.028,4.7586 1.6083,-4.7586 h 0.68809 l 1.6083,4.7669 1.0197,-4.7669 z m 2.3296,5.3555 q 0.39793,0 0.72954,-0.16581 0.3399,-0.1741 0.62177,-0.52229 l 0.40622,0.37306 q -0.3399,0.44768 -0.79587,0.67151 -0.45596,0.21554 -1.0197,0.21554 -0.90364,0 -1.484,-0.58861 -0.57203,-0.5969 -0.57203,-1.5254 0,-0.90364 0.58861,-1.5088 0.58861,-0.60519 1.4508,-0.60519 0.87877,0 1.4259,0.57203 0.54713,0.57203 0.54716,1.4922 0,0.06632 -0.0083,0.15752 -0.0083,0.0829 -0.01659,0.12435 h -3.2912 q 0.06632,0.58861 0.45596,0.95338 0.39793,0.35648 0.96167,0.35648 z m -0.06632,-3.084 q -0.52228,0 -0.89535,0.3399 -0.37306,0.3399 -0.45596,0.91193 h 2.6363 q -0.07461,-0.58032 -0.4228,-0.91193 -0.34819,-0.3399 -0.86219,-0.3399 z m 2.6861,-1.8156 h 0.74612 v 0.73783 h -0.74612 z m 0.03316,5.3472 v -4.0042 h 0.6798 v 4.0042 z m 4.9078,-0.47254 v -0.28187 q -0.27358,0.33161 -0.66322,0.514 -0.38135,0.18238 -0.82074,0.18238 -0.84561,0 -1.4093,-0.56374 -0.56374,-0.56374 -0.56374,-1.4508 0,-0.87877 0.57203,-1.4508 0.58032,-0.58032 1.4259,-0.58032 0.43109,0 0.81244,0.18238 0.38135,0.18239 0.65493,0.514 v -0.5969 h 0.67151 v 3.5068 q 0,0.99483 -0.53058,1.4922 -0.53058,0.49742 -1.6,0.49742 h -1.0114 v -0.58032 h 1.0446 q 0.70467,0 1.0612,-0.34819 0.35648,-0.34819 0.35648,-1.0363 z m -1.3845,-0.18239 q 0.5969,0 1.0031,-0.40622 0.41451,-0.41451 0.41451,-1.0114 0,-0.61348 -0.41451,-1.0197 -0.40622,-0.41451 -1.0031,-0.41451 -0.62177,0 -1.0031,0.38964 -0.38135,0.38964 -0.38135,1.0363 0,0.63835 0.38135,1.0363 0.38964,0.38964 1.0031,0.38964 z m 2.9348,-5.1483 h 0.67151 v 2.4042 q 0.24042,-0.3399 0.5969,-0.52229 0.36477,-0.18238 0.81245,-0.18238 0.80416,0 1.2518,0.514 0.45596,0.514 0.45596,1.4093 v 2.1803 h -0.67151 v -2.1389 q 0,-0.63835 -0.31503,-0.99483 -0.31503,-0.36477 -0.87877,-0.36477 -0.56374,0 -0.91193,0.38964 -0.3399,0.38964 -0.3399,1.0114 v 2.0974 h -0.67151 z m 4.8415,4.7337 v -2.3379 h -0.54716 v -0.5969 h 0.54716 v -1.227 h 0.67151 v 1.227 h 0.92851 v 0.5969 h -0.92851 v 2.2798 q 0,0.26529 0.11606,0.39793 0.12435,0.12435 0.37306,0.12435 h 0.43939 v 0.60519 h -0.53887 q -0.55545,0 -0.81245,-0.257 -0.24871,-0.257 -0.24871,-0.81244 z m 5.5047,-0.09948 q 0,0.56374 -0.48084,0.92022 -0.48084,0.35648 -1.2518,0.35648 -0.50571,0 -0.95338,-0.15752 -0.43939,-0.1658 -0.79587,-0.48912 l 0.34819,-0.514 q 0.38135,0.31503 0.71296,0.45597 0.33161,0.14093 0.70467,0.14093 0.48084,0 0.771,-0.18239 0.29845,-0.19068 0.29845,-0.48913 0,-0.30674 -0.24871,-0.43938 -0.24871,-0.14094 -0.82074,-0.14922 -0.83732,-0.03316 -1.227,-0.30674 -0.38135,-0.27358 -0.38135,-0.8539 0,-0.53058 0.43939,-0.87877 0.44768,-0.35648 1.1441,-0.35648 0.47254,0 0.88706,0.14922 0.41451,0.14922 0.75441,0.43938 l -0.32332,0.50571 q -0.3399,-0.27358 -0.65493,-0.39793 -0.31503,-0.12435 -0.67151,-0.12435 -0.40622,0 -0.67151,0.18239 -0.257,0.18238 -0.257,0.44768 0,0.29016 0.23213,0.4228 0.23213,0.13265 0.73784,0.15752 0.90364,0.02487 1.3016,0.29845 0.40623,0.27358 0.40623,0.86219 z"
     stop-color="#000000"
     style="font-variation-settings:normal;fill:#00285a;fill-rule:evenodd;-inkscape-stroke:none"
     aria-label="Weights"
     id="path167" />
  <path
     transform="matrix(.43109 0 0 .43347 16.771 -79.202)"
     d="m439.24 301.04h38.002c13.533 0 24.43-9.966 24.43-22.346s-10.897-22.346-24.43-22.346h-38.002c-13.534 0-24.43 9.966-24.43 22.346s10.896 22.346 24.43 22.346z"
     clip-path="url(#d)"
     fill="#76ceff"
     fill-opacity=".99"
     stop-color="#000000"
     stroke="#76ceff"
     stroke-miterlimit="8"
     stroke-width=".81609"
     style="-inkscape-stroke:none;font-variation-settings:normal"
     id="path168" />
  <path
     d="m207.13 38.486-1.3264 5.8032h-0.74612l-1.6498-4.7835-1.6332 4.7835h-0.74613l-1.3182-5.8032h0.72955l1.028 4.7586 1.6083-4.7586h0.68809l1.6083 4.7669 1.0197-4.7669zm2.3296 5.3555q0.39793 0 0.72954-0.16581 0.3399-0.1741 0.62177-0.52229l0.40622 0.37306q-0.3399 0.44768-0.79586 0.67151-0.45597 0.21554-1.0197 0.21554-0.90364 0-1.484-0.58861-0.57203-0.5969-0.57203-1.5254 0-0.90364 0.58861-1.5088 0.58861-0.60519 1.4508-0.60519 0.87876 0 1.4259 0.57203t0.54716 1.4922q0 0.06632-8e-3 0.15752-8e-3 0.0829-0.0166 0.12435h-3.2912q0.0663 0.58861 0.45597 0.95338 0.39793 0.35648 0.96167 0.35648zm-0.0663-3.084q-0.52228 0-0.89534 0.3399-0.37307 0.3399-0.45597 0.91193h2.6363q-0.0746-0.58032-0.42281-0.91193-0.34819-0.3399-0.86219-0.3399zm2.6861-1.8156h0.74612v0.73783h-0.74612zm0.0332 5.3472v-4.0042h0.6798v4.0042zm4.9078-0.47254v-0.28187q-0.27358 0.33161-0.66322 0.514-0.38135 0.18238-0.82073 0.18238-0.84561 0-1.4094-0.56374-0.56374-0.56374-0.56374-1.4508 0-0.87877 0.57203-1.4508 0.58032-0.58032 1.4259-0.58032 0.43109 0 0.81244 0.18238 0.38135 0.18239 0.65493 0.514v-0.5969h0.67152v3.5068q0 0.99483-0.53058 1.4922-0.53058 0.49742-1.6 0.49742h-1.0114v-0.58032h1.0446q0.70467 0 1.0612-0.34819 0.35648-0.34819 0.35648-1.0363zm-1.3845-0.18239q0.5969 0 1.0031-0.40622 0.41451-0.41451 0.41451-1.0114 0-0.61348-0.41451-1.0197-0.40622-0.41451-1.0031-0.41451-0.62177 0-1.0031 0.38964-0.38136 0.38964-0.38136 1.0363 0 0.63835 0.38136 1.0363 0.38964 0.38964 1.0031 0.38964zm2.9348-5.1483h0.67151v2.4042q0.24042-0.3399 0.5969-0.52229 0.36477-0.18238 0.81245-0.18238 0.80415 0 1.2518 0.514 0.45596 0.514 0.45596 1.4093v2.1803h-0.67151v-2.1389q0-0.63835-0.31503-0.99483-0.31503-0.36477-0.87877-0.36477t-0.91193 0.38964q-0.3399 0.38964-0.3399 1.0114v2.0974h-0.67151zm4.8415 4.7337v-2.3379h-0.54716v-0.5969h0.54716v-1.227h0.67151v1.227h0.92851v0.5969h-0.92851v2.2798q0 0.26529 0.11606 0.39793 0.12436 0.12435 0.37307 0.12435h0.43938v0.60519h-0.53887q-0.55544 0-0.81244-0.257-0.24871-0.257-0.24871-0.81244zm5.5047-0.09948q0 0.56374-0.48084 0.92022-0.48083 0.35648-1.2518 0.35648-0.5057 0-0.95338-0.15752-0.43938-0.1658-0.79586-0.48912l0.34819-0.514q0.38135 0.31503 0.71296 0.45597 0.33161 0.14093 0.70467 0.14093 0.48084 0 0.771-0.18239 0.29845-0.19068 0.29845-0.48913 0-0.30674-0.24871-0.43938-0.24871-0.14094-0.82074-0.14922-0.83731-0.03316-1.227-0.30674-0.38135-0.27358-0.38135-0.8539 0-0.53058 0.43939-0.87877 0.44767-0.35648 1.144-0.35648 0.47255 0 0.88706 0.14922t0.75442 0.43938l-0.32332 0.50571q-0.33991-0.27358-0.65494-0.39793t-0.67151-0.12435q-0.40622 0-0.67151 0.18239-0.257 0.18238-0.257 0.44768 0 0.29016 0.23213 0.4228 0.23213 0.13265 0.73783 0.15752 0.90364 0.02487 1.3016 0.29845 0.40623 0.27358 0.40623 0.86219z"
     fill="#00285a"
     fill-rule="evenodd"
     stop-color="#000000"
     style="-inkscape-stroke:none;font-variation-settings:normal"
     aria-label="Weights"
     id="path169" />
  <path
     d="m108.82 42.695-0.76271 1.7492h-0.74612l2.5783-5.8032h0.69638l2.57 5.8032h-0.75442l-0.77099-1.7492zm1.401-3.2-1.1192 2.57h2.255zm5.256 5.0736q-0.92022 0-1.5005-0.58032-0.57203-0.58861-0.57203-1.5337 0-0.89535 0.60519-1.5088 0.60519-0.61348 1.484-0.61348 0.63835 0 1.086 0.29845 0.45596 0.29016 0.68809 0.8456l-0.57203 0.27358q-0.19068-0.41451-0.49742-0.62177-0.29845-0.20726-0.71296-0.20726-0.58861 0-0.99483 0.44768-0.39793 0.43938-0.39793 1.086 0 0.65493 0.39793 1.0943 0.40622 0.43109 1.0114 0.43109 0.38964 0 0.72125-0.20726 0.33991-0.21555 0.54716-0.5969l0.52229 0.28187q-0.24042 0.514-0.72126 0.81244-0.48083 0.29845-1.0943 0.29845zm2.7109-1.1938v-2.3379h-0.54716v-0.5969h0.54716v-1.227h0.67151v1.227h0.92851v0.5969h-0.92851v2.2798q0 0.26529 0.11606 0.39793 0.12436 0.12435 0.37306 0.12435h0.43939v0.60519h-0.53887q-0.55545 0-0.81245-0.257-0.2487-0.257-0.2487-0.81245zm2.3213-4.2778h0.74613v0.73784h-0.74613zm0.0332 5.3472v-4.0042h0.67981v4.0042zm3.0177 0-1.7161-4.0042h0.73783l1.3016 3.2 1.2933-3.2h0.69638l-1.6995 4.0042zm6.1265 0h-0.65493v-0.65493q-0.24042 0.34819-0.65494 0.54716-0.40622 0.19068-0.87876 0.19068-0.66322 0-1.0777-0.33161-0.41451-0.3399-0.41451-0.88706 0-0.60519 0.46425-0.91193 0.46426-0.31503 1.3762-0.31503h1.1772q-8e-3 -0.56374-0.29845-0.87048-0.28187-0.30674-0.81245-0.30674-0.31503 0-0.62177 0.13265-0.30674 0.13264-0.60519 0.40622l-0.35648-0.44768q0.34819-0.33161 0.7627-0.49742 0.41452-0.1741 0.88706-0.1741 0.80416 0 1.2518 0.48084 0.45597 0.47255 0.45597 1.3099zm-0.66322-1.8404h-1.1689q-0.60519 0-0.89535 0.16581-0.29016 0.1658-0.29016 0.52228 0 0.29845 0.24871 0.49742 0.257 0.19897 0.65493 0.19897 0.5969 0 1.0031-0.38135 0.41452-0.38964 0.44768-1.0031zm1.6746 0.771v-2.3379h-0.54716v-0.5969h0.54716v-1.227h0.67151v1.227h0.92851v0.5969h-0.92851v2.2798q0 0.26529 0.11607 0.39793 0.12435 0.12435 0.37306 0.12435h0.43938v0.60519h-0.53886q-0.55545 0-0.81245-0.257-0.24871-0.257-0.24871-0.81245zm2.3213-4.2778h0.74612v0.73784h-0.74612zm0.0332 5.3472v-4.0042h0.6798v4.0042zm5.6208-1.998q0 0.90364-0.60519 1.5171-0.60519 0.60519-1.4922 0.60519t-1.484-0.60519q-0.58861-0.60519-0.58861-1.5088 0-0.90364 0.60519-1.5088 0.60519-0.61348 1.4922-0.61348t1.4757 0.60519q0.5969 0.60519 0.5969 1.5088zm-3.4819 0.0083q0 0.64664 0.39793 1.086 0.40622 0.43939 1.0031 0.43939 0.58861 0 0.98654-0.43939 0.40623-0.43938 0.40623-1.0943 0-0.63835-0.40623-1.0777-0.40622-0.44768-0.99483-0.44768t-0.99483 0.43938q-0.39793 0.43938-0.39793 1.0943zm4.1783-2.0145h0.66322v0.62177q0.24042-0.34819 0.60519-0.53058 0.37306-0.19068 0.82903-0.19068 0.79587 0 1.2435 0.514 0.44768 0.514 0.44768 1.4093v2.1803h-0.67152v-2.1389q0-0.63006-0.31503-0.99483-0.30674-0.36477-0.86219-0.36477-0.57202 0-0.92021 0.38964-0.3482 0.38964-0.3482 1.0114v2.0974h-0.67151zm7.8426 2.8353q0 0.56374-0.48084 0.92022-0.48083 0.35648-1.2518 0.35648-0.5057 0-0.95338-0.15752-0.43938-0.1658-0.79586-0.48912l0.34819-0.514q0.38135 0.31503 0.71296 0.45597 0.33161 0.14093 0.70467 0.14093 0.48084 0 0.771-0.18238 0.29845-0.19068 0.29845-0.48913 0-0.30674-0.24871-0.43938-0.24871-0.14094-0.82074-0.14922-0.83731-0.03316-1.227-0.30674-0.38135-0.27358-0.38135-0.8539 0-0.53058 0.43939-0.87877 0.44767-0.35648 1.144-0.35648 0.47255 0 0.88706 0.14922 0.41452 0.14922 0.75442 0.43938l-0.32332 0.50571q-0.33991-0.27358-0.65493-0.39793-0.31504-0.12435-0.67152-0.12435-0.40622 0-0.67151 0.18239-0.257 0.18238-0.257 0.44767 0 0.29016 0.23213 0.4228 0.23213 0.13265 0.73784 0.15752 0.90363 0.02487 1.3016 0.29845 0.40622 0.27358 0.40622 0.86219z"
     fill="#ececec"
     fill-rule="evenodd"
     stroke-miterlimit="8"
     stroke-width=".35278"
     aria-label="Activations"
     id="path170" />
  <path
     transform="matrix(.43109 0 0 .43347 106.5 -100.83)"
     d="m439.24 256.35c-13.534 0-24.43 9.966-24.43 22.346 0 12.38 10.896 22.346 24.43 22.346h62.406c13.533 0 24.43-9.966 24.43-22.346 0-12.38-10.897-22.346-24.43-22.346h-38.002z"
     clip-path="url(#b)"
     fill="#0068b5"
     stop-color="#000000"
     style="-inkscape-stroke:none;font-variation-settings:normal"
     id="path171" />
  <path
     d="m290.86 21.066-0.76272 1.7492h-0.74612l2.5783-5.8032h0.69641l2.57 5.8032h-0.75443l-0.771-1.7492zm1.401-3.2-1.1192 2.57h2.255zm5.256 5.0736q-0.92022 0-1.5005-0.58032-0.57203-0.58861-0.57203-1.5337 0-0.89535 0.60518-1.5088 0.60521-0.61348 1.484-0.61348 0.63836 0 1.086 0.29845 0.45595 0.29016 0.68807 0.84561l-0.57203 0.27358q-0.19066-0.41451-0.49741-0.62177-0.29845-0.20726-0.71295-0.20726-0.58862 0-0.99483 0.44768-0.39794 0.43938-0.39794 1.086 0 0.65493 0.39794 1.0943 0.40621 0.43109 1.0114 0.43109 0.38966 0 0.72126-0.20726 0.33991-0.21555 0.54716-0.5969l0.52228 0.28187q-0.2404 0.514-0.72125 0.81245-0.48083 0.29845-1.0943 0.29845zm2.7109-1.1938v-2.3379h-0.54715v-0.5969h0.54715v-1.227h0.67152v1.227h0.9285v0.5969h-0.9285v2.2798q0 0.26529 0.11607 0.39793 0.12435 0.12435 0.37306 0.12435h0.43937v0.60519h-0.53885q-0.55547 0-0.81246-0.257-0.24871-0.257-0.24871-0.81245zm2.3213-4.2778h0.74613v0.73784h-0.74613zm0.0332 5.3472v-4.0042h0.6798v4.0042zm3.0176 0-1.7161-4.0042h0.73781l1.3016 3.2 1.2933-3.2h0.69638l-1.6995 4.0042zm6.1265 0h-0.65495v-0.65493q-0.2404 0.34819-0.65492 0.54716-0.40622 0.19068-0.87876 0.19068-0.66323 0-1.0778-0.33161-0.41449-0.3399-0.41449-0.88706 0-0.60519 0.46423-0.91193 0.46427-0.31503 1.3762-0.31503h1.1772q-8e-3 -0.56374-0.29845-0.87048-0.28186-0.30674-0.81246-0.30674-0.31501 0-0.62177 0.13265-0.30673 0.13264-0.60518 0.40622l-0.35647-0.44768q0.34819-0.33161 0.76269-0.49742 0.41452-0.1741 0.88706-0.1741 0.80415 0 1.2518 0.48084 0.45598 0.47255 0.45598 1.3099zm-0.66323-1.8404h-1.1689q-0.60518 0-0.89535 0.16581-0.29017 0.1658-0.29017 0.52228 0 0.29845 0.24871 0.49742 0.25702 0.19897 0.65495 0.19897 0.5969 0 1.0031-0.38135 0.41453-0.38964 0.44768-1.0031zm1.6746 0.771v-2.3379h-0.54716v-0.5969h0.54716v-1.227h0.67151v1.227h0.9285v0.5969h-0.9285v2.2798q0 0.26529 0.11607 0.39793 0.12436 0.12435 0.37306 0.12435h0.43937v0.60519h-0.53885q-0.55547 0-0.81246-0.257-0.2487-0.257-0.2487-0.81245zm2.3213-4.2778h0.74613v0.73784h-0.74613zm0.0331 5.3472v-4.0042h0.6798v4.0042zm5.6208-1.998q0 0.90364-0.60519 1.5171-0.60518 0.60519-1.4922 0.60519-0.88704 0-1.4839-0.60519-0.58862-0.60519-0.58862-1.5088 0-0.90364 0.60518-1.5088 0.60521-0.61348 1.4922-0.61348 0.88707 0 1.4757 0.60519 0.59688 0.60519 0.59688 1.5088zm-3.4819 0.0083q0 0.64664 0.39793 1.086 0.40621 0.43939 1.0031 0.43939 0.58862 0 0.98653-0.43939 0.40624-0.43938 0.40624-1.0943 0-0.63835-0.40624-1.0777-0.40622-0.44768-0.99481-0.44768-0.58862 0-0.99483 0.43938-0.39793 0.43938-0.39793 1.0943zm4.1783-2.0145h0.66323v0.62177q0.24043-0.34819 0.60518-0.53058 0.37306-0.19068 0.82905-0.19068 0.79586 0 1.2435 0.514 0.44767 0.514 0.44767 1.4093v2.1803h-0.67151v-2.1389q0-0.63006-0.31504-0.99483-0.30673-0.36477-0.8622-0.36477-0.57203 0-0.92019 0.38964-0.34822 0.38964-0.34822 1.0114v2.0974h-0.67151zm7.8426 2.8353q0 0.56374-0.48082 0.92022-0.48083 0.35648-1.2518 0.35648-0.50572 0-0.9534-0.15752-0.43936-0.1658-0.79586-0.48912l0.34819-0.514q0.38137 0.31503 0.71297 0.45597 0.3316 0.14093 0.70467 0.14093 0.48085 0 0.77099-0.18238 0.29845-0.19068 0.29845-0.48913 0-0.30674-0.24871-0.43938-0.24871-0.14094-0.82073-0.14922-0.83731-0.03316-1.227-0.30674-0.38134-0.27358-0.38134-0.8539 0-0.53058 0.43937-0.87877 0.44767-0.35648 1.144-0.35648 0.47255 0 0.88707 0.14922 0.41453 0.14922 0.75441 0.43938l-0.32332 0.50571q-0.33989-0.27358-0.65492-0.39793-0.31504-0.12436-0.67152-0.12436-0.40621 0-0.67151 0.18239-0.25699 0.18239-0.25699 0.44767 0 0.29016 0.23212 0.4228 0.23212 0.13265 0.73784 0.15752 0.90363 0.02487 1.3016 0.29845 0.40621 0.27358 0.40621 0.86219z"
     fill="#ececec"
     fill-rule="evenodd"
     stroke-miterlimit="8"
     stroke-width=".35278"
     aria-label="Activations"
     id="path172" />
  <path
     style="font-size:4.23338px;font-family:'IntelOne Display';-inkscape-font-specification:'IntelOne Display';text-align:center;baseline-shift:baseline;text-anchor:middle;fill:#00285a;fill-opacity:1;fill-rule:evenodd;stroke-width:0.264586"
     d="m 241.3477,100.0419 h -0.45721 v -0.321733 h 0.81281 v 2.963363 h -0.3556 z"
     id="text172-9"
     aria-label="1" />
  <path
     d="m 273.30898,112.50686 h -2.11245 v -0.29634 l 1.02447,-0.93981 q 0.36407,-0.3302 0.49531,-0.52494 0.13123,-0.19473 0.13123,-0.41487 0,-0.23283 -0.17356,-0.381 -0.16934,-0.1524 -0.42334,-0.1524 -0.31327,0 -0.49531,0.19473 -0.1778,0.1905 -0.1905,0.53764 h -0.34714 q 0.008,-0.4826 0.28787,-0.76624 0.28364,-0.28787 0.75354,-0.28787 0.41488,0 0.68158,0.2413 0.27093,0.23707 0.27093,0.60537 0,0.29634 -0.1651,0.55034 -0.16087,0.24977 -0.61384,0.64771 l -0.74931,0.66888 h 1.62562 z"
     id="text172-8-9"
     style="font-size:4.23338px;font-family:'IntelOne Display';-inkscape-font-specification:'IntelOne Display';text-align:center;text-anchor:middle;fill:#00285a;fill-opacity:1;fill-rule:evenodd;stroke-width:0.264586"
     aria-label="2" />
  <path
     style="font-size:4.23338px;font-family:'IntelOne Display';-inkscape-font-specification:'IntelOne Display';text-align:center;baseline-shift:baseline;text-anchor:middle;fill:#00285a;fill-opacity:1;fill-rule:evenodd;stroke-width:0.264586"
     d="m 252.67174,102.58511 h -2.11245 v -0.29633 l 1.02448,-0.93981 q 0.36407,-0.33021 0.4953,-0.52494 0.13124,-0.19474 0.13124,-0.41487 0,-0.23284 -0.17357,-0.38101 -0.16934,-0.1524 -0.42334,-0.1524 -0.31327,0 -0.49531,0.19474 -0.1778,0.1905 -0.1905,0.53764 h -0.34714 q 0.008,-0.48261 0.28787,-0.766247 0.28364,-0.287869 0.75355,-0.287869 0.41487,0 0.68157,0.241302 0.27094,0.237074 0.27094,0.605374 0,0.29634 -0.1651,0.55034 -0.16087,0.24977 -0.61385,0.64771 l -0.7493,0.66887 h 1.62561 z"
     id="text172-8-6"
     aria-label="2" />
  <path
     style="font-size:4.23338px;font-family:'IntelOne Display';-inkscape-font-specification:'IntelOne Display';text-align:center;baseline-shift:baseline;text-anchor:middle;fill:#00285a;fill-opacity:1;fill-rule:evenodd;stroke-width:0.264586"
     d="m 242.35313,112.50686 h -2.11246 v -0.29634 l 1.02448,-0.93981 q 0.36407,-0.3302 0.4953,-0.52494 0.13124,-0.19473 0.13124,-0.41487 0,-0.23283 -0.17357,-0.381 -0.16934,-0.1524 -0.42334,-0.1524 -0.31327,0 -0.4953,0.19473 -0.17781,0.1905 -0.19051,0.53764 h -0.34713 q 0.008,-0.4826 0.28787,-0.76624 0.28363,-0.28787 0.75354,-0.28787 0.41487,0 0.68157,0.2413 0.27094,0.23707 0.27094,0.60537 0,0.29634 -0.1651,0.55034 -0.16087,0.24977 -0.61384,0.64771 l -0.74931,0.66888 h 1.62562 z"
     id="text172-8-3"
     aria-label="2" />
  <path
     style="font-size:4.23338px;font-family:'IntelOne Display';-inkscape-font-specification:'IntelOne Display';text-align:center;baseline-shift:baseline;text-anchor:middle;fill:#00285a;fill-opacity:1;fill-rule:evenodd;stroke-width:0.264586"
     d="m 272.26334,102.42953 q 0.30057,0 0.49954,-0.1651 0.2032,-0.16934 0.2032,-0.41911 0,-0.26247 -0.20744,-0.41487 -0.2032,-0.1524 -0.56727,-0.1524 h -0.18627 v -0.30057 h 0.1778 q 0.33444,0 0.52918,-0.14393 0.19473,-0.14817 0.19473,-0.37678 0,-0.21166 -0.1778,-0.34713 -0.1778,-0.13547 -0.46567,-0.13547 -0.30481,0 -0.48684,0.1651 -0.1778,0.16087 -0.19897,0.44451 h -0.34714 q 0.0127,-0.39794 0.30057,-0.664644 0.29211,-0.266703 0.74931,-0.266703 0.43604,0 0.71121,0.224369 0.2794,0.220138 0.2794,0.550338 0,0.24554 -0.14393,0.42757 -0.1397,0.18204 -0.40641,0.27517 0.30481,0.0847 0.45721,0.26671 0.1524,0.18203 0.1524,0.46567 0,0.37677 -0.3048,0.635 -0.30481,0.25401 -0.77048,0.25401 -0.4953,0 -0.78741,-0.26671 -0.28787,-0.27093 -0.2921,-0.74084 h 0.3429 q 0.0169,0.33021 0.20744,0.50801 0.19473,0.1778 0.53764,0.1778 z"
     id="text173-2"
     aria-label="3" />
  <path
     style="font-size:4.23338px;font-family:'IntelOne Display';-inkscape-font-specification:'IntelOne Display';text-align:center;baseline-shift:baseline;text-anchor:middle;fill:#00285a;fill-opacity:1;fill-rule:evenodd;stroke-width:0.264586"
     d="m 282.94814,101.85274 h -1.60869 v -0.27094 l 1.46475,-1.993919 h 0.49954 v 1.964289 h 0.49954 v 0.30057 h -0.49954 v 0.69851 h -0.3556 z m 0.0127,-1.976989 -1.23192,1.676419 h 1.23192 z"
     id="text174-4"
     aria-label="4" />
  <path
     id="path168-0"
     clip-path="url(#d-0)"
     style="font-variation-settings:normal;opacity:1;vector-effect:none;fill:#1e2eb8;fill-opacity:1;stroke:none;stroke-width:4.39278;stroke-linecap:butt;stroke-linejoin:miter;stroke-miterlimit:8;stroke-dasharray:none;stroke-dashoffset:0;stroke-opacity:1;-inkscape-stroke:none;stop-color:#000000;stop-opacity:1"
     d="m 439.24013,256.34835 c -13.53396,0 -24.42951,9.96619 -24.42951,22.34617 0,12.37997 10.89555,22.34617 24.42951,22.34617 h 38.00267 8.8805 21.32459 16.67808 21.32459 c 13.53299,0 24.42951,-9.96619 24.42951,-22.34617 0,-12.37999 -10.89652,-22.34617 -24.42951,-22.34617 H 524.12597 507.44789 486.1233 c -1.51779,0 -3.00047,0.13065 -4.44025,0.37068 -1.4402,-0.2402 -2.92203,-0.37068 -4.44025,-0.37068 z"
     transform="matrix(0.19040256,0,0,0.17147661,215.55017,6.7138935)"
     sodipodi:nodetypes="sssssccsssccscss" />
  <path
     d="m 300.21762,56.146031 v -0.01693 q -0.77894,-0.07902 -1.28695,-0.649117 -0.50236,-0.575739 -0.50236,-1.388547 0,-0.874898 0.58139,-1.473215 0.58138,-0.598317 1.4337,-0.598317 0.85796,0 1.42806,0.592673 0.57574,0.587028 0.57574,1.46757 0,0.807163 -0.50236,1.388547 -0.50236,0.575739 -1.27566,0.660406 0.006,0.259647 0.11853,0.366893 0.11289,0.11289 0.37819,0.11289 h 0.3556 v 0.378181 h -0.41205 q -0.45156,0 -0.67169,-0.208846 -0.22014,-0.208847 -0.22014,-0.632184 z m -1.29259,-2.065887 q 0,0.694273 0.43463,1.168411 0.44027,0.468494 1.08374,0.468494 0.64347,0 1.07245,-0.462849 0.43463,-0.468494 0.43463,-1.162767 0,-0.694274 -0.43463,-1.162767 -0.43462,-0.474138 -1.07809,-0.474138 -0.64912,0 -1.08375,0.468493 -0.42898,0.462849 -0.42898,1.157123 z m 6.58148,1.981219 h -0.4572 V 55.64367 q -0.16369,0.237069 -0.41205,0.361248 -0.24836,0.118535 -0.56445,0.118535 -0.53623,0 -0.84668,-0.349959 -0.3048,-0.349959 -0.3048,-0.953921 V 53.33507 h 0.46285 v 1.456281 q 0,0.428982 0.20885,0.67734 0.21449,0.248358 0.59267,0.248358 0.38383,0 0.62089,-0.265292 0.23707,-0.265291 0.23707,-0.688629 V 53.33507 h 0.46285 z m 2.93514,0 h -0.44592 v -0.445915 q -0.16369,0.237069 -0.44591,0.372537 -0.27658,0.129823 -0.59832,0.129823 -0.45156,0 -0.73379,-0.22578 -0.28222,-0.231424 -0.28222,-0.603961 0,-0.412049 0.31609,-0.620895 0.31609,-0.214491 0.93699,-0.214491 h 0.80152 q -0.006,-0.383826 -0.2032,-0.592673 -0.19192,-0.208846 -0.55317,-0.208846 -0.21449,0 -0.42333,0.09031 -0.20885,0.09031 -0.41205,0.27658 l -0.24271,-0.304803 q 0.23706,-0.22578 0.51929,-0.33867 0.28222,-0.118534 0.60396,-0.118534 0.54752,0 0.85232,0.327381 0.31045,0.321736 0.31045,0.891831 z m -0.45156,-1.253079 h -0.79588 q -0.41205,0 -0.6096,0.11289 -0.19756,0.11289 -0.19756,0.355604 0,0.203202 0.16933,0.33867 0.17498,0.135468 0.44592,0.135468 0.4064,0 0.68298,-0.259647 0.28223,-0.265292 0.30481,-0.682985 z m 1.016,-1.473214 h 0.45156 v 0.423337 q 0.16369,-0.237069 0.41205,-0.361248 0.254,-0.129823 0.56445,-0.129823 0.54187,0 0.84668,0.349959 0.3048,0.349959 0.3048,0.959565 v 1.484503 h -0.4572 v -1.456281 q 0,-0.428982 -0.2145,-0.67734 -0.20884,-0.248358 -0.58702,-0.248358 -0.38947,0 -0.62654,0.265292 -0.23707,0.265291 -0.23707,0.688629 v 1.428058 h -0.45721 z m 3.29639,1.998153 v -1.591749 h -0.37254 V 53.33507 h 0.37254 v -0.835386 h 0.4572 v 0.835386 h 0.63219 v 0.406404 h -0.63219 v 1.552237 q 0,0.180624 0.079,0.270936 0.0847,0.08467 0.25401,0.08467 h 0.29916 v 0.412048 h -0.3669 q -0.37818,0 -0.55316,-0.174979 -0.16933,-0.17498 -0.16933,-0.553161 z m 1.58046,-2.912562 h 0.508 v 0.50236 h -0.508 z m 0.0226,3.640702 V 53.33507 h 0.46284 v 2.726293 z m 3.3246,0 h -2.38762 v -0.361248 l 1.73851,-1.981219 h -1.67078 V 53.33507 h 2.24651 v 0.361248 l -1.72157,1.981219 h 1.79495 z m 1.63691,-0.304803 q 0.27094,0 0.49672,-0.11289 0.23143,-0.118534 0.42334,-0.355603 l 0.27658,0.254002 q -0.23143,0.304803 -0.54187,0.457205 -0.31045,0.146757 -0.69428,0.146757 -0.61525,0 -1.01036,-0.40076 -0.38947,-0.406404 -0.38947,-1.038588 0,-0.61525 0.40076,-1.027299 0.40076,-0.412048 0.98778,-0.412048 0.59832,0 0.97086,0.38947 0.37254,0.389471 0.37254,1.01601 0,0.04516 -0.006,0.107246 -0.006,0.05644 -0.0113,0.08467 h -2.24086 q 0.0451,0.40076 0.31044,0.649118 0.27094,0.242713 0.65476,0.242713 z m -0.0451,-2.099754 q -0.3556,0 -0.60961,0.231425 -0.254,0.231424 -0.31044,0.620895 h 1.79495 q -0.0508,-0.395115 -0.28787,-0.620895 -0.23707,-0.231425 -0.58703,-0.231425 z"
     id="text175-7"
     style="font-size:5.6445px;font-family:'IntelOne Display';-inkscape-font-specification:'IntelOne Display';text-align:center;text-anchor:middle;fill:#ececec;fill-opacity:0.99;fill-rule:evenodd;stroke-width:0.264586"
     aria-label="Quantize" />
  <path
     style="font-size:4.23338px;font-family:'IntelOne Display';-inkscape-font-specification:'IntelOne Display';text-align:center;baseline-shift:baseline;text-anchor:middle;fill:#00285a;fill-opacity:1;fill-rule:evenodd;stroke-width:0.264586"
     d="m 282.64548,110.4812 q 0.4572,0 0.74507,0.27094 0.28787,0.27093 0.28787,0.6985 0,0.44874 -0.3302,0.75354 -0.32597,0.30057 -0.81281,0.30057 -0.46144,0 -0.76624,-0.28363 -0.30481,-0.28787 -0.30481,-0.72814 0,-0.35561 0.1524,-0.66464 0.15664,-0.30904 0.53341,-0.71121 l 0.59267,-0.63924 h 0.45721 v 0.008 l -0.79164,0.81705 q -0.072,0.0762 -0.1397,0.1524 -0.0677,0.0762 -0.13124,0.1524 0.1143,-0.0635 0.2413,-0.0931 0.127,-0.0339 0.26671,-0.0339 z m 0.66887,0.97368 q 0,-0.30057 -0.19897,-0.48684 -0.19897,-0.18627 -0.52494,-0.18627 -0.32597,0 -0.5461,0.19897 -0.21591,0.19473 -0.21591,0.49107 0,0.31327 0.20321,0.51224 0.20743,0.19897 0.51647,0.19897 0.33444,0 0.55034,-0.20744 0.2159,-0.20743 0.2159,-0.5207 z"
     id="text175-6"
     aria-label="6" />
  <path
     d="m 118.94376,124.12727 v -0.13547 q 0,-0.68157 0.32597,-1.08374 0.32597,-0.40217 0.87207,-0.40217 0.54611,0 0.86361,0.39794 0.32174,0.39793 0.32174,1.07951 v 0.13547 q 0,0.68157 -0.32597,1.08374 -0.32174,0.40217 -0.86784,0.40217 -0.54611,0 -0.86785,-0.39794 -0.32173,-0.39793 -0.32173,-1.07951 z m 1.18958,-1.29965 q -0.38948,0 -0.60961,0.30481 -0.2159,0.3048 -0.2159,0.85091 v 0.13547 q 0,0.55033 0.22013,0.85937 0.22014,0.3048 0.60961,0.3048 0.38947,0 0.60537,-0.3048 0.22014,-0.3048 0.22014,-0.85091 v -0.13547 q 0,-0.55034 -0.22014,-0.85514 -0.22013,-0.30904 -0.6096,-0.30904 z m 1.49861,2.2818 h 0.42757 v 0.42757 h -0.42757 z m 2.95913,-0.53341 q 0,0.4445 -0.3175,0.73661 -0.31327,0.2921 -0.81281,0.2921 -0.38101,0 -0.66464,-0.18627 -0.28364,-0.1905 -0.39794,-0.51647 l 0.28787,-0.14817 q 0.11007,0.25824 0.31327,0.39794 0.2032,0.13547 0.47414,0.13547 0.3302,0 0.54187,-0.19897 0.21167,-0.19897 0.21167,-0.50377 0,-0.29211 -0.2032,-0.46991 -0.2032,-0.18203 -0.51647,-0.18203 -0.20744,0 -0.39794,0.0847 -0.1905,0.0847 -0.34714,0.24977 l -0.254,-0.0381 -0.0127,-0.0212 0.11853,-1.63409 h 1.78225 v 0.33021 h -1.47321 l -0.0804,0.95251 q 0.16087,-0.11854 0.34714,-0.17781 0.1905,-0.0635 0.38524,-0.0635 0.44027,0 0.72814,0.26671 0.28787,0.26247 0.28787,0.69427 z"
     id="text172-4"
     style="font-size:4.23338px;font-family:'IntelOne Display';-inkscape-font-specification:'IntelOne Display';text-align:center;text-anchor:middle;white-space:pre;inline-size:6.82603;fill:#00285a;fill-opacity:1;fill-rule:evenodd;stroke-width:0.264586"
     transform="translate(-21.491594,-13.063994)"
     aria-label="0.5" />
  <path
     style="font-size:4.23338px;font-family:'IntelOne Display';-inkscape-font-specification:'IntelOne Display';text-align:center;text-anchor:middle;fill-opacity:1;fill-rule:evenodd;stroke-width:0.264586;font-variation-settings:normal;opacity:1;vector-effect:none;fill:#00285a;stroke:none;stroke-linecap:butt;stroke-linejoin:miter;stroke-miterlimit:4;stroke-dasharray:none;stroke-dashoffset:0;stroke-opacity:1;-inkscape-stroke:none;stop-color:#000000;stop-opacity:1"
     d="m 87.161057,111.06328 v -0.13547 q 0,-0.68158 0.325971,-1.08375 0.32597,-0.40217 0.872076,-0.40217 0.546106,0 0.863609,0.39794 0.321737,0.39794 0.321737,1.07951 v 0.13547 q 0,0.68157 -0.32597,1.08374 -0.321737,0.40218 -0.867843,0.40218 -0.546106,0 -0.867843,-0.39794 -0.321737,-0.39794 -0.321737,-1.07951 z m 1.18958,-1.29965 q -0.389471,0 -0.609607,0.3048 -0.215902,0.30481 -0.215902,0.85091 v 0.13547 q 0,0.55034 0.220136,0.85938 0.220136,0.3048 0.609607,0.3048 0.389471,0 0.605373,-0.3048 0.220136,-0.30481 0.220136,-0.85091 v -0.13547 q 0,-0.55034 -0.220136,-0.85514 -0.220136,-0.30904 -0.609607,-0.30904 z m 1.498611,2.28179 h 0.427571 v 0.42757 h -0.427571 z m 2.904101,0.42757 h -2.112457 v -0.29633 l 1.024478,-0.93981 q 0.364071,-0.33021 0.495305,-0.52494 0.131235,-0.19474 0.131235,-0.41488 0,-0.23283 -0.173568,-0.381 -0.169336,-0.1524 -0.423338,-0.1524 -0.313271,0 -0.495306,0.19473 -0.177802,0.19051 -0.190502,0.53764 h -0.347137 q 0.0085,-0.4826 0.28787,-0.76624 0.283636,-0.28787 0.753541,-0.28787 0.414872,0 0.681575,0.2413 0.270936,0.23707 0.270936,0.60538 0,0.29633 -0.165102,0.55034 -0.160868,0.24977 -0.61384,0.6477 l -0.749308,0.66888 h 1.625618 z"
     id="text172-2"
     aria-label="0.2" />
  <path
     style="font-size:4.23338px;font-family:'IntelOne Display';-inkscape-font-specification:'IntelOne Display';text-align:center;text-anchor:middle;fill-opacity:1;fill-rule:evenodd;stroke-width:0.264586;font-variation-settings:normal;opacity:1;vector-effect:none;fill:#00285a;stroke:none;stroke-linecap:butt;stroke-linejoin:miter;stroke-miterlimit:4;stroke-dasharray:none;stroke-dashoffset:0;stroke-opacity:1;-inkscape-stroke:none;stop-color:#000000;stop-opacity:1"
     d="m 87.148356,101.27382 v -0.13547 q 0,-0.68158 0.32597,-1.08375 0.32597,-0.402167 0.872076,-0.402167 0.546106,0 0.86361,0.397937 0.321737,0.39794 0.321737,1.07951 v 0.13547 q 0,0.68157 -0.325971,1.08375 -0.321737,0.40217 -0.867843,0.40217 -0.546106,0 -0.867842,-0.39794 -0.321737,-0.39794 -0.321737,-1.07951 z m 1.189579,-1.29965 q -0.38947,0 -0.609606,0.3048 -0.215903,0.30481 -0.215903,0.85091 v 0.13547 q 0,0.55034 0.220136,0.85938 0.220136,0.3048 0.609607,0.3048 0.389471,0 0.605373,-0.3048 0.220136,-0.30481 0.220136,-0.85091 v -0.13547 q 0,-0.55034 -0.220136,-0.85514 -0.220136,-0.30904 -0.609607,-0.30904 z m 1.498611,2.28179 h 0.427572 v 0.42757 h -0.427572 z m 1.862689,0.17357 q 0.30057,0 0.499539,-0.1651 0.203202,-0.16934 0.203202,-0.41911 0,-0.26247 -0.207435,-0.41487 -0.203202,-0.1524 -0.567273,-0.1524 h -0.186269 v -0.30057 h 0.177802 q 0.334437,0 0.529173,-0.14393 0.194735,-0.14817 0.194735,-0.37678 0,-0.21166 -0.177802,-0.34713 -0.177802,-0.13547 -0.465672,-0.13547 -0.304803,0 -0.486838,0.1651 -0.177802,0.16087 -0.198969,0.44451 h -0.347137 q 0.0127,-0.39794 0.30057,-0.664644 0.292103,-0.266703 0.749308,-0.266703 0.436038,0 0.711208,0.224369 0.279403,0.220138 0.279403,0.550338 0,0.24554 -0.143935,0.42757 -0.139702,0.18204 -0.406405,0.27517 0.304804,0.0847 0.457205,0.26671 0.152402,0.18203 0.152402,0.46567 0,0.37677 -0.304803,0.635 -0.304804,0.25401 -0.770475,0.25401 -0.495306,0 -0.787409,-0.26671 -0.28787,-0.27093 -0.292103,-0.74084 h 0.342904 q 0.01693,0.33021 0.207435,0.50801 0.194736,0.1778 0.537639,0.1778 z"
     id="text172-6"
     aria-label="0.3" />
  <path
     style="font-size:4.23338px;font-family:'IntelOne Display';-inkscape-font-specification:'IntelOne Display';text-align:center;text-anchor:middle;fill-opacity:1;fill-rule:evenodd;stroke-width:0.264586;font-variation-settings:normal;opacity:1;vector-effect:none;fill:#00285a;stroke:none;stroke-linecap:butt;stroke-linejoin:miter;stroke-miterlimit:4;stroke-dasharray:none;stroke-dashoffset:0;stroke-opacity:1;-inkscape-stroke:none;stop-color:#000000;stop-opacity:1"
     d="m 97.356908,101.14153 v -0.13547 q 0,-0.68157 0.325971,-1.083742 0.32597,-0.402171 0.872076,-0.402171 0.546106,0 0.863609,0.397937 0.321737,0.397936 0.321737,1.079516 v 0.13546 q 0,0.68158 -0.32597,1.08375 -0.321737,0.40217 -0.867843,0.40217 -0.546106,0 -0.867843,-0.39794 -0.321737,-0.39793 -0.321737,-1.07951 z m 1.18958,-1.299646 q -0.389471,0 -0.609607,0.304806 -0.215902,0.3048 -0.215902,0.85091 v 0.13546 q 0,0.55034 0.220136,0.85938 0.220135,0.3048 0.609606,0.3048 0.389471,0 0.605374,-0.3048 0.220135,-0.3048 0.220135,-0.85091 v -0.13547 q 0,-0.55034 -0.220135,-0.85514 -0.220136,-0.309036 -0.609607,-0.309036 z m 1.498612,2.281796 h 0.42757 v 0.42757 h -0.42757 z m 2.29449,-0.27094 h -1.60868 v -0.27094 l 1.46475,-1.993919 h 0.49954 v 1.964289 h 0.49954 v 0.30057 h -0.49954 v 0.69851 h -0.35561 z m 0.0127,-1.976989 -1.23191,1.676419 h 1.23191 z"
     id="text172-67"
     aria-label="0.4" />
  <path
     style="font-size:4.23338px;font-family:'IntelOne Display';-inkscape-font-specification:'IntelOne Display';text-align:center;text-anchor:middle;fill-opacity:1;fill-rule:evenodd;stroke-width:0.264586;font-variation-settings:normal;opacity:1;vector-effect:none;fill:#00285a;stroke-linecap:butt;stroke-linejoin:miter;stroke-miterlimit:4;stroke-dasharray:none;stroke-dashoffset:0;stroke-opacity:1;-inkscape-stroke:none;stop-color:#000000;stop-opacity:1"
     d="m 67.26043,111.06328 v -0.13547 q 0,-0.68158 0.32597,-1.08375 0.32597,-0.40217 0.872076,-0.40217 0.546106,0 0.86361,0.39794 0.321736,0.39794 0.321736,1.07951 v 0.13547 q 0,0.68157 -0.32597,1.08374 -0.321737,0.40218 -0.867843,0.40218 -0.546106,0 -0.867842,-0.39794 -0.321737,-0.39794 -0.321737,-1.07951 z m 1.189579,-1.29965 q -0.389471,0 -0.609606,0.3048 -0.215903,0.30481 -0.215903,0.85091 v 0.13547 q 0,0.55034 0.220136,0.85938 0.220136,0.3048 0.609607,0.3048 0.389471,0 0.605373,-0.3048 0.220136,-0.30481 0.220136,-0.85091 v -0.13547 q 0,-0.55034 -0.220136,-0.85514 -0.220136,-0.30904 -0.609607,-0.30904 z m 1.498611,2.28179 h 0.427571 v 0.42757 H 69.94862 Z m 1.075278,-2.21406 h -0.457205 v -0.32173 h 0.812809 v 2.96336 h -0.355604 z"
     id="text172-83"
     aria-label="0.1" />
  <path
     style="font-size:4.23338px;font-family:'IntelOne Display';-inkscape-font-specification:'IntelOne Display';text-align:center;text-anchor:middle;fill-opacity:1;fill-rule:evenodd;stroke-width:0.264586;fill:#00285a"
     d="m 56.941807,101.27382 v -0.13547 q 0,-0.68158 0.32597,-1.08375 0.325971,-0.402167 0.872077,-0.402167 0.546106,0 0.863609,0.397937 0.321737,0.39794 0.321737,1.07951 v 0.13547 q 0,0.68157 -0.32597,1.08375 -0.321737,0.40217 -0.867843,0.40217 -0.546106,0 -0.867843,-0.39794 -0.321737,-0.39794 -0.321737,-1.07951 z m 1.18958,-1.29965 q -0.389471,0 -0.609607,0.3048 -0.215902,0.30481 -0.215902,0.85091 v 0.13547 q 0,0.55034 0.220135,0.85938 0.220136,0.3048 0.609607,0.3048 0.389471,0 0.605373,-0.3048 0.220136,-0.30481 0.220136,-0.85091 v -0.13547 q 0,-0.55034 -0.220136,-0.85514 -0.220135,-0.30904 -0.609606,-0.30904 z m 1.49861,2.28179 h 0.427572 v 0.42757 h -0.427572 z m 1.075278,-2.21406 H 60.24807 v -0.321733 h 0.812809 v 2.963363 h -0.355604 z"
     id="text172"
     aria-label="0.1" />
  <path
     style="font-size:4.23338px;font-family:'IntelOne Display';-inkscape-font-specification:'IntelOne Display';text-align:center;text-anchor:middle;fill-opacity:1;fill-rule:evenodd;stroke-width:0.264586;font-variation-settings:normal;opacity:1;vector-effect:none;fill:#00285a;stroke-linecap:butt;stroke-linejoin:miter;stroke-miterlimit:4;stroke-dasharray:none;stroke-dashoffset:0;stroke-opacity:1;-inkscape-stroke:none;stop-color:#000000;stop-opacity:1"
     d="m 56.205197,111.06328 v -0.13547 q 0,-0.68158 0.325971,-1.08375 0.32597,-0.40217 0.872076,-0.40217 0.546106,0 0.863609,0.39794 0.321737,0.39794 0.321737,1.07951 v 0.13547 q 0,0.68157 -0.32597,1.08374 -0.321737,0.40218 -0.867843,0.40218 -0.546106,0 -0.867843,-0.39794 -0.321737,-0.39794 -0.321737,-1.07951 z m 1.18958,-1.29965 q -0.389471,0 -0.609607,0.3048 -0.215902,0.30481 -0.215902,0.85091 v 0.13547 q 0,0.55034 0.220136,0.85938 0.220135,0.3048 0.609606,0.3048 0.389471,0 0.605374,-0.3048 0.220135,-0.30481 0.220135,-0.85091 v -0.13547 q 0,-0.55034 -0.220135,-0.85514 -0.220136,-0.30904 -0.609607,-0.30904 z m 1.498611,2.28179 h 0.427571 v 0.42757 h -0.427571 z m 2.9041,0.42757 h -2.112456 v -0.29633 l 1.024478,-0.93981 q 0.36407,-0.33021 0.495305,-0.52494 0.131235,-0.19474 0.131235,-0.41488 0,-0.23283 -0.173569,-0.381 -0.169335,-0.1524 -0.423338,-0.1524 -0.31327,0 -0.495305,0.19473 -0.177802,0.19051 -0.190502,0.53764 h -0.347137 q 0.0085,-0.4826 0.28787,-0.76624 0.283636,-0.28787 0.753541,-0.28787 0.414871,0 0.681574,0.2413 0.270937,0.23707 0.270937,0.60538 0,0.29633 -0.165102,0.55034 -0.160869,0.24977 -0.61384,0.6477 l -0.749308,0.66888 h 1.625617 z"
     id="text172-5"
     aria-label="0.2" />
  <path
     style="font-size:4.23338px;font-family:'IntelOne Display';-inkscape-font-specification:'IntelOne Display';text-align:center;text-anchor:middle;fill-opacity:1;fill-rule:evenodd;stroke-width:0.264586;font-variation-settings:normal;opacity:1;vector-effect:none;fill:#00285a;stroke-linecap:butt;stroke-linejoin:miter;stroke-miterlimit:4;stroke-dasharray:none;stroke-dashoffset:0;stroke-opacity:1;-inkscape-stroke:none;stop-color:#000000;stop-opacity:1"
     d="m 66.52382,101.14153 v -0.13547 q 0,-0.68157 0.32597,-1.083742 0.32597,-0.402171 0.872076,-0.402171 0.546106,0 0.86361,0.397937 0.321737,0.397936 0.321737,1.079516 v 0.13546 q 0,0.68158 -0.325971,1.08375 -0.321736,0.40217 -0.867842,0.40217 -0.546106,0 -0.867843,-0.39794 -0.321737,-0.39793 -0.321737,-1.07951 z m 1.18958,-1.299646 q -0.389471,0 -0.609607,0.304806 -0.215902,0.3048 -0.215902,0.85091 v 0.13546 q 0,0.55034 0.220135,0.85938 0.220136,0.3048 0.609607,0.3048 0.389471,0 0.605373,-0.3048 0.220136,-0.3048 0.220136,-0.85091 v -0.13547 q 0,-0.55034 -0.220136,-0.85514 -0.220135,-0.309036 -0.609606,-0.309036 z m 1.49861,2.281796 h 0.427572 v 0.42757 H 69.21201 Z m 2.904101,0.42757 h -2.112457 v -0.29634 l 1.024478,-0.93981 q 0.364071,-0.3302 0.495306,-0.52494 0.131235,-0.19473 0.131235,-0.41487 0,-0.23284 -0.173569,-0.381005 -0.169335,-0.152401 -0.423338,-0.152401 -0.31327,0 -0.495305,0.194736 -0.177802,0.1905 -0.190502,0.53764 h -0.347138 q 0.0085,-0.48261 0.28787,-0.766243 0.283637,-0.28787 0.753542,-0.28787 0.414871,0 0.681574,0.241302 0.270936,0.23707 0.270936,0.605371 0,0.29634 -0.165102,0.55034 -0.160868,0.24977 -0.61384,0.64771 l -0.749308,0.66887 h 1.625618 z"
     id="text172-0"
     aria-label="0.2" />
  <g
     id="g61">
    <rect
       style="fill:#1e2eb8;fill-opacity:1;fill-rule:evenodd;stroke:none;stroke-width:0.793739;stroke-miterlimit:8;-inkscape-stroke:none"
       id="rect61"
       width="45.961658"
       height="7.9488544"
       x="146.60632"
       y="95.919655" />
    <path
       transform="matrix(0.26458,0,0,0.26458,28.884785,-26.648527)"
       d="m 619.98,482.46 v -8.72 l 9.148,4.276 z"
       clip-path="url(#av-7)"
       clip-rule="evenodd"
       fill="#b1b1b2"
       fill-rule="evenodd"
       id="path65-1"
       style="fill:#1e2eb8;fill-opacity:1;stroke:#1e2eb8;stroke-width:27.0006;stroke-dasharray:none;stroke-opacity:1" />
  </g>
  <path
     d="m 156.17729,101.53661 v -0.0169 q -0.77894,-0.079 -1.28694,-0.64912 -0.50236,-0.57574 -0.50236,-1.38855 0,-0.874896 0.58138,-1.473211 0.58138,-0.598316 1.4337,-0.598316 0.85796,0 1.42806,0.592671 0.57574,0.587027 0.57574,1.467567 0,0.807169 -0.50236,1.388549 -0.50236,0.57574 -1.27566,0.66041 0.006,0.25964 0.11854,0.36689 0.11289,0.11289 0.37818,0.11289 h 0.3556 v 0.37818 h -0.41205 q -0.45156,0 -0.67169,-0.20885 -0.22014,-0.20884 -0.22014,-0.63218 z m -1.29259,-2.065889 q 0,0.694279 0.43463,1.168419 0.44027,0.46849 1.08374,0.46849 0.64347,0 1.07245,-0.46285 0.43463,-0.46849 0.43463,-1.16277 0,-0.694272 -0.43463,-1.162765 -0.43462,-0.474137 -1.07809,-0.474137 -0.64912,0 -1.08374,0.468493 -0.42899,0.462848 -0.42899,1.15712 z m 6.58147,1.981219 h -0.4572 v -0.41769 q -0.16369,0.23707 -0.41205,0.36125 -0.24835,0.11853 -0.56445,0.11853 -0.53622,0 -0.84667,-0.34996 -0.3048,-0.34996 -0.3048,-0.95392 v -1.484501 h 0.46285 v 1.456281 q 0,0.42898 0.20884,0.67734 0.21449,0.24836 0.59267,0.24836 0.38383,0 0.6209,-0.26529 0.23707,-0.26529 0.23707,-0.68863 v -1.428061 h 0.46284 z m 2.93514,0 h -0.44592 v -0.44591 q -0.16369,0.23707 -0.44591,0.37253 -0.27658,0.12983 -0.59832,0.12983 -0.45156,0 -0.73378,-0.22578 -0.28223,-0.23143 -0.28223,-0.60396 0,-0.41205 0.31609,-0.6209 0.31609,-0.214492 0.93699,-0.214492 h 0.80152 q -0.006,-0.383826 -0.20321,-0.592672 -0.19191,-0.208846 -0.55316,-0.208846 -0.21449,0 -0.42333,0.09031 -0.20885,0.09031 -0.41205,0.27658 l -0.24271,-0.304802 q 0.23707,-0.22578 0.51929,-0.33867 0.28222,-0.118534 0.60396,-0.118534 0.54752,0 0.85232,0.32738 0.31045,0.321736 0.31045,0.89183 z m -0.45156,-1.25307 h -0.79588 q -0.41204,0 -0.6096,0.11289 -0.19756,0.11289 -0.19756,0.3556 0,0.2032 0.16934,0.33867 0.17497,0.13547 0.44591,0.13547 0.4064,0 0.68298,-0.25965 0.28223,-0.26529 0.30481,-0.68298 z m 1.016,-1.473221 h 0.45156 v 0.423336 q 0.16369,-0.237068 0.41205,-0.361247 0.254,-0.129823 0.56445,-0.129823 0.54187,0 0.84667,0.349958 0.3048,0.349959 0.3048,0.959562 v 1.484505 h -0.4572 v -1.456285 q 0,-0.428977 -0.21449,-0.677335 -0.20885,-0.248357 -0.58703,-0.248357 -0.38947,0 -0.62654,0.265291 -0.23707,0.265291 -0.23707,0.688636 v 1.42805 h -0.4572 z m 3.29638,1.998151 v -1.591748 h -0.37254 v -0.406403 h 0.37254 v -0.835385 h 0.4572 v 0.835385 h 0.63218 v 0.406403 h -0.63218 v 1.552238 q 0,0.18063 0.079,0.27094 0.0847,0.0847 0.25401,0.0847 h 0.29915 v 0.41205 h -0.36689 q -0.37818,0 -0.55316,-0.17498 -0.16933,-0.17498 -0.16933,-0.55316 z m 1.58046,-2.912559 h 0.508 v 0.50236 h -0.508 z m 0.0226,3.640699 v -2.726291 h 0.46285 v 2.726291 z m 3.3246,0 h -2.38762 v -0.36125 l 1.73851,-1.981216 h -1.67077 v -0.383825 h 2.24651 v 0.361247 l -1.72157,1.981224 h 1.79494 z m 2.76581,0 h -0.44592 v -0.44591 q -0.16369,0.23707 -0.44591,0.37253 -0.27658,0.12983 -0.59832,0.12983 -0.45155,0 -0.73378,-0.22578 -0.28222,-0.23143 -0.28222,-0.60396 0,-0.41205 0.31609,-0.6209 0.31609,-0.214492 0.93698,-0.214492 h 0.80152 q -0.006,-0.383826 -0.2032,-0.592672 -0.19191,-0.208846 -0.55316,-0.208846 -0.21449,0 -0.42334,0.09031 -0.20884,0.09031 -0.41205,0.27658 l -0.24271,-0.304802 q 0.23707,-0.22578 0.51929,-0.33867 0.28223,-0.118534 0.60396,-0.118534 0.54752,0 0.85232,0.32738 0.31045,0.321736 0.31045,0.89183 z m -0.45156,-1.25307 h -0.79587 q -0.41205,0 -0.60961,0.11289 -0.19755,0.11289 -0.19755,0.3556 0,0.2032 0.16933,0.33867 0.17498,0.13547 0.44591,0.13547 0.40641,0 0.68299,-0.25965 0.28222,-0.26529 0.3048,-0.68298 z m 1.14019,0.52493 v -1.591748 h -0.37254 v -0.406403 h 0.37254 v -0.835385 h 0.4572 v 0.835385 h 0.63218 v 0.406403 h -0.63218 v 1.552238 q 0,0.18063 0.079,0.27094 0.0847,0.0847 0.25401,0.0847 h 0.29915 v 0.41205 h -0.36689 q -0.37818,0 -0.55316,-0.17498 -0.16933,-0.17498 -0.16933,-0.55316 z m 1.58046,-2.912559 h 0.508 v 0.50236 h -0.508 z m 0.0226,3.640699 v -2.726291 h 0.46285 v 2.726291 z m 3.82696,-1.36032 q 0,0.61525 -0.41204,1.03294 -0.41205,0.41205 -1.01601,0.41205 -0.60396,0 -1.01037,-0.41205 -0.40075,-0.41205 -0.40075,-1.0273 0,-0.61525 0.41204,-1.027297 0.41205,-0.417693 1.01601,-0.417693 0.60396,0 1.00472,0.412048 0.4064,0.412048 0.4064,1.027302 z m -2.37068,0.006 q 0,0.44027 0.27093,0.73943 0.27658,0.29916 0.68299,0.29916 0.40076,0 0.67169,-0.29916 0.27658,-0.29916 0.27658,-0.74507 0,-0.43463 -0.27658,-0.733788 -0.27658,-0.304803 -0.67734,-0.304803 -0.40076,0 -0.67734,0.299158 -0.27093,0.299158 -0.27093,0.745073 z m 2.84482,-1.371611 h 0.45156 v 0.423336 q 0.16369,-0.237068 0.41205,-0.361247 0.254,-0.129823 0.56445,-0.129823 0.54187,0 0.84667,0.349958 0.30481,0.349959 0.30481,0.959562 v 1.484505 h -0.45721 v -1.456285 q 0,-0.428977 -0.21449,-0.677335 -0.20884,-0.248357 -0.58702,-0.248357 -0.38947,0 -0.62654,0.265291 -0.23707,0.265291 -0.23707,0.688636 v 1.42805 h -0.45721 z"
     id="text176"
     style="font-size:5.64449px;font-family:'IntelOne Display';-inkscape-font-specification:'IntelOne Display';text-align:center;text-anchor:middle;fill:#ececec;fill-opacity:0.99;fill-rule:evenodd;stroke-width:0.264586"
     aria-label="Quantization" />
  <path
     d="m 240.61765,87.522135 q 0,1.058344 0.635,1.761084 0.63501,0.694273 1.59175,0.694273 0.64348,0 1.12608,-0.296336 0.49107,-0.296336 0.83821,-0.889009 l 0.5588,0.321737 q -0.381,0.72814 -1.04141,1.126078 -0.65194,0.38947 -1.49861,0.38947 -1.28695,0 -2.12515,-0.872075 -0.82975,-0.872075 -0.82975,-2.218289 0,-1.320813 0.86361,-2.209821 0.87208,-0.897476 2.16749,-0.897476 0.82128,0 1.44781,0.389471 0.63501,0.381003 0.99061,1.09221 l -0.5842,0.347137 q -0.3302,-0.601139 -0.78741,-0.889009 -0.4572,-0.287869 -1.08374,-0.287869 -0.97368,0 -1.62562,0.694273 -0.64347,0.694274 -0.64347,1.744151 z m 9.57589,0.931342 q 0,0.922876 -0.61807,1.549416 -0.61807,0.618072 -1.52401,0.618072 -0.90595,0 -1.51555,-0.618072 -0.60114,-0.618073 -0.60114,-1.540949 0,-0.922876 0.61807,-1.540948 0.61807,-0.62654 1.52402,-0.62654 0.90594,0 1.50708,0.618073 0.6096,0.618073 0.6096,1.540948 z m -3.55603,0.0085 q 0,0.660407 0.4064,1.109144 0.41487,0.448738 1.02448,0.448738 0.60114,0 1.00754,-0.448738 0.41487,-0.448737 0.41487,-1.117611 0,-0.651939 -0.41487,-1.100677 -0.41487,-0.457205 -1.01601,-0.457205 -0.60114,0 -1.01601,0.448738 -0.4064,0.448738 -0.4064,1.117611 z m 4.26725,-2.05742 h 0.67734 v 0.635006 q 0.24553,-0.355603 0.61807,-0.541872 0.381,-0.194735 0.84667,-0.194735 0.81281,0 1.27002,0.524938 0.4572,0.524939 0.4572,1.439348 v 2.226755 h -0.68581 v -2.184454 q 0,-0.643473 -0.32173,-1.01601 -0.31327,-0.372537 -0.88055,-0.372537 -0.5842,0 -0.9398,0.397937 -0.35561,0.397937 -0.35561,1.032943 v 2.142088 h -0.6858 z m 5.96058,4.08944 -1.75262,-4.08944 h 0.75354 l 1.32928,3.268165 1.32081,-3.268165 h 0.71121 l -1.73568,4.08944 z m 6.73952,-2.040487 q 0,0.922876 -0.61808,1.549416 -0.61807,0.618072 -1.52401,0.618072 -0.90594,0 -1.51555,-0.618072 -0.60114,-0.618073 -0.60114,-1.540949 0,-0.922876 0.61807,-1.540948 0.61808,-0.62654 1.52402,-0.62654 0.90594,0 1.50708,0.618073 0.60961,0.618073 0.60961,1.540948 z m -3.55604,0.0085 q 0,0.660407 0.4064,1.109144 0.41488,0.448738 1.02448,0.448738 0.60114,0 1.00755,-0.448738 0.41487,-0.448737 0.41487,-1.117611 0,-0.651939 -0.41487,-1.100677 -0.41488,-0.457205 -1.01602,-0.457205 -0.60113,0 -1.01601,0.448738 -0.4064,0.448738 -0.4064,1.117611 z m 4.34345,-3.894705 h 0.69427 v 5.926725 h -0.69427 z m 5.49491,5.926725 h -0.6858 v -0.626539 q -0.24554,0.355603 -0.61807,0.541872 -0.37254,0.177801 -0.84668,0.177801 -0.80434,0 -1.27001,-0.524938 -0.45721,-0.524939 -0.45721,-1.430881 V 86.40459 h 0.69428 v 2.184421 q 0,0.643473 0.31327,1.01601 0.32173,0.372537 0.88901,0.372537 0.57573,0 0.93134,-0.397937 0.3556,-0.397937 0.3556,-1.032943 V 86.40459 h 0.69427 z m 1.11761,-1.092211 v -2.387623 h -0.55881 V 86.40459 h 0.55881 v -1.253079 h 0.68581 v 1.253079 h 0.94827 v 0.609606 h -0.94827 v 2.328356 q 0,0.270936 0.11853,0.406404 0.127,0.127001 0.381,0.127001 h 0.44874 v 0.618073 h -0.55034 q -0.56727,0 -0.82974,-0.262469 -0.254,-0.262469 -0.254,-0.829742 z m 2.37069,-4.368843 h 0.76201 v 0.753541 h -0.76201 z m 0.0339,5.461054 v -4.08944 h 0.69427 v 4.08944 z m 5.74045,-2.040487 q 0,0.922876 -0.61808,1.549416 -0.61807,0.618072 -1.52401,0.618072 -0.90594,0 -1.51555,-0.618072 -0.60114,-0.618073 -0.60114,-1.540949 0,-0.922876 0.61807,-1.540948 0.61808,-0.62654 1.52402,-0.62654 0.90594,0 1.50708,0.618073 0.60961,0.618073 0.60961,1.540948 z m -3.55604,0.0085 q 0,0.660407 0.40641,1.109144 0.41487,0.448738 1.02447,0.448738 0.60114,0 1.00755,-0.448738 0.41487,-0.448737 0.41487,-1.117611 0,-0.651939 -0.41487,-1.100677 -0.41487,-0.457205 -1.01601,-0.457205 -0.60114,0 -1.01601,0.448738 -0.40641,0.448738 -0.40641,1.117611 z m 4.26725,-2.05742 h 0.67734 v 0.635006 q 0.24553,-0.355603 0.61807,-0.541872 0.381,-0.194735 0.84668,-0.194735 0.8128,0 1.27001,0.524938 0.4572,0.524939 0.4572,1.439348 v 2.226755 h -0.6858 v -2.18452 q 0,-0.643473 -0.32174,-1.01601 -0.31327,-0.372537 -0.88054,-0.372537 -0.58421,0 -0.93981,0.397937 -0.3556,0.397937 -0.3556,1.032943 v 2.142088 h -0.68581 z"
     id="text177"
     style="font-size:8.46675px;font-family:'IntelOne Display';-inkscape-font-specification:'IntelOne Display';text-align:center;baseline-shift:baseline;text-anchor:middle;white-space:pre;fill:#00285a;fill-rule:evenodd;stroke-width:0.264586"
     aria-label="Convolution" />
  <path
     d="m 58.587598,87.522135 q 0,1.058344 0.635,1.761084 0.63501,0.694273 1.59175,0.694273 0.64348,0 1.12608,-0.296336 0.49107,-0.296336 0.83821,-0.889009 l 0.5588,0.321737 q -0.381,0.72814 -1.04141,1.126078 -0.65194,0.38947 -1.49861,0.38947 -1.28695,0 -2.12515,-0.872075 -0.82975,-0.872075 -0.82975,-2.218289 0,-1.320813 0.86361,-2.209821 0.87208,-0.897476 2.16749,-0.897476 0.82128,0 1.44781,0.389471 0.63501,0.381003 0.99061,1.09221 l -0.5842,0.347137 q -0.3302,-0.601139 -0.78741,-0.889009 -0.4572,-0.287869 -1.08374,-0.287869 -0.97368,0 -1.62562,0.694273 -0.64347,0.694274 -0.64347,1.744151 z m 9.57589,0.931342 q 0,0.922876 -0.61807,1.549416 -0.61807,0.618072 -1.52401,0.618072 -0.90595,0 -1.51555,-0.618072 -0.60114,-0.618073 -0.60114,-1.540949 0,-0.922876 0.61807,-1.540948 0.61807,-0.62654 1.52402,-0.62654 0.90594,0 1.50708,0.618073 0.6096,0.618073 0.6096,1.540948 z m -3.55603,0.0085 q 0,0.660407 0.4064,1.109144 0.41487,0.448738 1.02448,0.448738 0.60114,0 1.00754,-0.448738 0.41487,-0.448737 0.41487,-1.117611 0,-0.651939 -0.41487,-1.100677 -0.41487,-0.457205 -1.01601,-0.457205 -0.60114,0 -1.01601,0.448738 -0.4064,0.448738 -0.4064,1.117611 z m 4.26725,-2.05742 h 0.67734 v 0.635006 q 0.24553,-0.355603 0.61807,-0.541872 0.381,-0.194735 0.84667,-0.194735 0.81281,0 1.27002,0.524938 0.4572,0.524939 0.4572,1.439348 v 2.226755 h -0.68581 v -2.184454 q 0,-0.643473 -0.32173,-1.01601 -0.31327,-0.372537 -0.88055,-0.372537 -0.5842,0 -0.9398,0.397937 -0.35561,0.397937 -0.35561,1.032943 v 2.142088 h -0.6858 z m 5.96058,4.08944 -1.75262,-4.08944 h 0.75354 l 1.32928,3.268165 1.32081,-3.268165 h 0.71121 l -1.73568,4.08944 z m 6.73952,-2.040487 q 0,0.922876 -0.61808,1.549416 -0.61807,0.618072 -1.52401,0.618072 -0.90594,0 -1.51555,-0.618072 -0.60114,-0.618073 -0.60114,-1.540949 0,-0.922876 0.61807,-1.540948 0.61808,-0.62654 1.52402,-0.62654 0.90594,0 1.50708,0.618073 0.60961,0.618073 0.60961,1.540948 z m -3.55604,0.0085 q 0,0.660407 0.4064,1.109144 0.41488,0.448738 1.02448,0.448738 0.60114,0 1.00755,-0.448738 0.41487,-0.448737 0.41487,-1.117611 0,-0.651939 -0.41487,-1.100677 -0.41488,-0.457205 -1.01602,-0.457205 -0.60113,0 -1.01601,0.448738 -0.4064,0.448738 -0.4064,1.117611 z m 4.34345,-3.894705 h 0.69427 v 5.926725 h -0.69427 z m 5.49491,5.926725 h -0.6858 v -0.626539 q -0.24554,0.355603 -0.61807,0.541872 -0.37254,0.177801 -0.84668,0.177801 -0.80434,0 -1.27001,-0.524938 -0.45721,-0.524939 -0.45721,-1.430881 V 86.40459 h 0.69428 v 2.184421 q 0,0.643473 0.31327,1.01601 0.32173,0.372537 0.88901,0.372537 0.57573,0 0.93134,-0.397937 0.3556,-0.397937 0.3556,-1.032943 V 86.40459 h 0.69427 z m 1.11761,-1.092211 v -2.387623 h -0.55881 V 86.40459 h 0.55881 v -1.253079 h 0.68581 v 1.253079 h 0.94827 v 0.609606 h -0.94827 v 2.328356 q 0,0.270936 0.11853,0.406404 0.127,0.127001 0.381,0.127001 h 0.44874 v 0.618073 h -0.55034 q -0.56727,0 -0.82974,-0.262469 -0.254,-0.262469 -0.254,-0.829742 z m 2.37069,-4.368843 h 0.76201 v 0.753541 h -0.76201 z m 0.0339,5.461054 v -4.08944 h 0.69427 v 4.08944 z m 5.74045,-2.040487 q 0,0.922876 -0.61808,1.549416 -0.61807,0.618072 -1.52401,0.618072 -0.90594,0 -1.51555,-0.618072 -0.60114,-0.618073 -0.60114,-1.540949 0,-0.922876 0.61807,-1.540948 0.61808,-0.62654 1.52402,-0.62654 0.90594,0 1.50708,0.618073 0.60961,0.618073 0.60961,1.540948 z m -3.55604,0.0085 q 0,0.660407 0.40641,1.109144 0.41487,0.448738 1.02447,0.448738 0.60114,0 1.00755,-0.448738 0.41487,-0.448737 0.41487,-1.117611 0,-0.651939 -0.41487,-1.100677 -0.41487,-0.457205 -1.01601,-0.457205 -0.60114,0 -1.01601,0.448738 -0.40641,0.448738 -0.40641,1.117611 z m 4.26725,-2.05742 h 0.67734 v 0.635006 q 0.24553,-0.355603 0.61807,-0.541872 0.381,-0.194735 0.84668,-0.194735 0.812802,0 1.270012,0.524938 0.4572,0.524939 0.4572,1.439348 v 2.226755 h -0.6858 v -2.18452 q 0,-0.643473 -0.32174,-1.01601 -0.31327,-0.372537 -0.880542,-0.372537 -0.58421,0 -0.93981,0.397937 -0.3556,0.397937 -0.3556,1.032943 v 2.142088 h -0.68581 z"
     id="text177-2"
     style="font-size:8.46675px;font-family:'IntelOne Display';-inkscape-font-specification:'IntelOne Display';text-align:center;baseline-shift:baseline;text-anchor:middle;white-space:pre;fill:#00285a;fill-rule:evenodd;stroke-width:0.264586"
     aria-label="Convolution" />
</svg>
